<svg viewBox="0 0 390 459" fill="none" xmlns="http://www.w3.org/2000/svg">
<g filter="url(#filter0_f_98_8678)">
<path d="M327 229.5C327 301.021 267.902 359 195 359C122.098 359 63 301.021 63 229.5C63 157.979 122.098 100 195 100C267.902 100 327 157.979 327 229.5Z" fill="#AEE3C7"/>
</g>
<path d="M156.272 163.236C127.486 176.087 107.695 203.309 107.695 237.614C107.695 285.828 146.786 324.92 195 324.92C243.215 324.92 282.306 285.828 282.306 237.614C282.306 203.319 262.527 176.104 233.756 163.248L156.272 163.236Z" fill="#AEE3C7"/>
<path d="M234.978 179.629C229.005 172.42 224.467 168.539 219.84 166.46L222.946 166.942C238.652 164.086 248.852 149.807 250.892 133.08C245.588 141.24 222.742 135.12 210.911 140.016C199.093 144.906 195.01 162.005 195 162.045C194.991 162.006 190.907 144.906 179.089 140.016C167.258 135.12 144.412 141.239 139.108 133.08C141.148 149.807 151.347 164.086 167.054 166.941L170.16 166.46C165.533 168.538 160.995 172.42 155.022 179.628C147.135 189.147 134.896 186.971 134.896 186.971C134.896 186.971 149.582 218.657 180.045 204.65C190.619 199.787 194.184 191.718 194.966 184.459L195.036 184.47C195.82 191.726 199.387 199.79 209.956 204.65C240.418 218.657 255.105 186.971 255.105 186.971C255.105 186.971 242.866 189.148 234.978 179.629Z" fill="#6FDEA9"/>
<path d="M272.205 190.115C264.423 178.546 253.727 169.009 241.036 162.267C248.449 155.498 253.493 145.452 254.941 133.574C255.171 131.689 254.07 129.896 252.286 129.246C250.501 128.597 248.506 129.265 247.471 130.857C245.673 133.623 237.112 133.676 230.234 133.718C222.86 133.764 215.236 133.811 209.35 136.246C205.548 137.819 202.073 140.594 199.079 144.396V139.336C199.079 137.083 197.253 135.256 195 135.256C192.746 135.256 190.92 137.083 190.92 139.336V144.394C188.292 141.044 184.919 138.013 180.649 136.246C174.763 133.811 167.139 133.764 159.765 133.718C152.887 133.676 144.327 133.623 142.529 130.857C141.494 129.265 139.498 128.597 137.713 129.246C135.929 129.896 134.829 131.689 135.058 133.574C136.507 145.452 141.551 155.498 148.964 162.267C136.277 169.007 125.585 178.539 117.803 190.103C108.521 203.897 103.614 220.326 103.614 237.615C103.614 262.023 113.121 284.971 130.382 302.233C147.643 319.494 170.591 329 195 329C219.409 329 242.357 319.494 259.618 302.233C276.879 284.972 286.385 262.023 286.385 237.615C286.386 220.332 281.482 203.907 272.205 190.115ZM255.785 182.959C255.33 182.882 254.86 182.872 254.39 182.955C254.291 182.973 244.418 184.628 238.12 177.026C235.397 173.74 232.912 171.087 230.557 168.939C231.543 168.535 232.509 168.087 233.451 167.595C242.001 171.592 249.495 176.791 255.785 182.959ZM144.959 140.885C149.27 141.813 154.416 141.844 159.716 141.877C166.305 141.918 173.12 141.96 177.53 143.785C186.343 147.432 190.237 160.101 190.921 162.574V168.704C190.921 170.957 192.748 172.784 195.001 172.784C197.254 172.784 199.08 170.957 199.08 168.704V162.574C199.768 160.091 203.664 147.43 212.471 143.785C216.882 141.96 223.696 141.918 230.285 141.877C235.585 141.844 240.732 141.813 245.043 140.885C241.268 152.659 232.859 160.992 222.217 162.928C222.14 162.942 222.067 162.962 221.992 162.98C216.755 160.491 211.499 160.046 204.789 160.046C202.536 160.046 200.71 161.873 200.71 164.126C200.71 166.379 202.536 168.205 204.789 168.205C215.487 168.205 220.686 168.773 231.838 182.231C236.752 188.163 243.006 190.3 247.898 190.981C242.411 198.464 230.466 209.59 211.662 200.944C204.162 197.496 199.933 191.805 199.093 184.032C198.895 182.201 197.494 180.728 195.674 180.441L195.604 180.43C194.502 180.256 193.374 180.541 192.487 181.22C191.6 181.899 191.03 182.912 190.911 184.023C190.073 191.801 185.844 197.494 178.341 200.944C159.534 209.592 147.589 198.462 142.104 190.981C146.996 190.299 153.251 188.162 158.164 182.231C169.316 168.773 174.516 168.205 185.213 168.205C187.466 168.205 189.293 166.379 189.293 164.126C189.293 161.873 187.466 160.046 185.213 160.046C178.503 160.046 173.247 160.491 168.01 162.98C167.936 162.962 167.862 162.942 167.786 162.928C157.141 160.993 148.733 152.66 144.959 140.885ZM159.444 168.939C157.089 171.087 154.604 173.74 151.881 177.026C145.663 184.53 135.997 183.019 135.611 182.955C135.141 182.871 134.671 182.881 134.216 182.958C140.506 176.79 148 171.592 156.55 167.595C157.493 168.087 158.458 168.535 159.444 168.939ZM195 320.841C149.11 320.841 111.775 283.506 111.775 237.615C111.775 217.912 118.599 200.156 130.849 186.48C130.759 187.221 130.869 187.986 131.195 188.688C131.361 189.046 135.35 197.527 143.451 204.211C151.177 210.584 164.091 216.476 181.749 208.357C187.591 205.671 192.049 201.844 195 197.042C197.952 201.844 202.41 205.672 208.252 208.357C214.402 211.186 219.977 212.314 224.958 212.314C234.276 212.314 241.515 208.364 246.55 204.211C254.651 197.528 258.64 189.046 258.806 188.688C259.131 187.986 259.242 187.222 259.152 186.481C271.402 200.158 278.226 217.913 278.226 237.615C278.226 283.505 240.891 320.841 195 320.841Z" fill="#2F2F2F"/>
<path d="M157.516 285.421C146.679 276.586 139.279 264.204 136.681 250.555C136.259 248.342 134.123 246.89 131.91 247.311C129.697 247.732 128.244 249.868 128.666 252.081C131.623 267.613 140.038 281.699 152.361 291.745C153.118 292.362 154.03 292.663 154.936 292.663C156.12 292.663 157.294 292.15 158.1 291.161C159.524 289.414 159.262 286.845 157.516 285.421Z" fill="#2F2F2F"/>
<path d="M131.552 243.506C133.805 243.506 135.631 241.68 135.631 239.427V239.381C135.631 237.128 133.805 235.302 131.552 235.302C129.298 235.302 127.472 237.128 127.472 239.381V239.427C127.472 241.68 129.298 243.506 131.552 243.506Z" fill="#2F2F2F"/>
<defs>
<filter id="filter0_f_98_8678" x="-37" y="0" width="464" height="459" filterUnits="userSpaceOnUse" color-interpolation-filters="sRGB">
<feFlood flood-opacity="0" result="BackgroundImageFix"/>
<feBlend mode="normal" in="SourceGraphic" in2="BackgroundImageFix" result="shape"/>
<feGaussianBlur stdDeviation="50" result="effect1_foregroundBlur_98_8678"/>
</filter>
</defs>
</svg>
