<svg viewBox="0 0 390 459" fill="none" xmlns="http://www.w3.org/2000/svg">
<g filter="url(#filter0_f_98_8655)">
<path d="M328 229.5C328 301.021 268.902 359 196 359C123.098 359 64 301.021 64 229.5C64 157.979 123.098 100 196 100C268.902 100 328 157.979 328 229.5Z" fill="#BBB9B9"/>
</g>
<g opacity="0.3">
<path d="M157.272 163.237C128.486 176.087 108.695 203.309 108.695 237.615C108.695 285.829 147.786 324.92 196 324.92C244.215 324.92 283.306 285.829 283.306 237.615C283.306 203.32 263.527 176.105 234.756 163.249L157.272 163.237Z" fill="#D4D1D1"/>
<path d="M235.978 179.629C230.005 172.42 225.467 168.539 220.84 166.461L223.946 166.942C239.652 164.086 249.852 149.808 251.892 133.081C246.588 141.24 223.742 135.121 211.911 140.017C200.093 144.906 196.01 162.006 196 162.046C195.991 162.006 191.907 144.906 180.089 140.016C168.258 135.12 145.412 141.24 140.108 133.081C142.148 149.807 152.347 164.086 168.054 166.942L171.16 166.46C166.533 168.539 161.995 172.421 156.022 179.629C148.135 189.148 135.896 186.972 135.896 186.972C135.896 186.972 150.582 218.658 181.045 204.65C191.619 199.788 195.184 191.718 195.966 184.46L196.036 184.471C196.82 191.727 200.387 199.79 210.956 204.65C241.418 218.657 256.105 186.972 256.105 186.972C256.105 186.972 243.866 189.148 235.978 179.629Z" fill="#D4D1D1"/>
<path d="M273.205 190.115C265.423 178.546 254.727 169.009 242.036 162.267C249.449 155.498 254.493 145.452 255.941 133.574C256.171 131.689 255.07 129.896 253.286 129.246C251.501 128.597 249.506 129.265 248.471 130.857C246.673 133.623 238.112 133.676 231.234 133.718C223.86 133.764 216.236 133.811 210.35 136.246C206.548 137.819 203.073 140.594 200.079 144.396V139.336C200.079 137.083 198.253 135.256 196 135.256C193.746 135.256 191.92 137.083 191.92 139.336V144.394C189.292 141.044 185.919 138.013 181.649 136.246C175.763 133.811 168.139 133.764 160.765 133.718C153.887 133.676 145.327 133.623 143.529 130.857C142.494 129.265 140.498 128.597 138.713 129.246C136.929 129.896 135.829 131.689 136.058 133.574C137.507 145.452 142.551 155.498 149.964 162.267C137.277 169.007 126.585 178.539 118.803 190.103C109.521 203.897 104.614 220.326 104.614 237.615C104.614 262.023 114.121 284.971 131.382 302.233C148.643 319.494 171.591 329 196 329C220.409 329 243.357 319.494 260.618 302.233C277.879 284.972 287.385 262.023 287.385 237.615C287.386 220.332 282.482 203.906 273.205 190.115ZM256.785 182.959C256.33 182.882 255.86 182.872 255.39 182.955C255.291 182.973 245.418 184.628 239.12 177.026C236.397 173.74 233.912 171.087 231.557 168.939C232.543 168.535 233.509 168.087 234.451 167.595C243.001 171.592 250.495 176.791 256.785 182.959ZM145.959 140.885C150.27 141.813 155.416 141.844 160.716 141.877C167.305 141.918 174.12 141.96 178.53 143.785C187.343 147.432 191.237 160.101 191.921 162.574V168.704C191.921 170.957 193.748 172.784 196.001 172.784C198.254 172.784 200.08 170.957 200.08 168.704V162.574C200.768 160.091 204.664 147.43 213.471 143.785C217.882 141.96 224.696 141.918 231.285 141.877C236.585 141.844 241.732 141.813 246.043 140.885C242.268 152.659 233.859 160.992 223.217 162.928C223.14 162.942 223.067 162.962 222.992 162.98C217.755 160.491 212.499 160.046 205.789 160.046C203.536 160.046 201.71 161.873 201.71 164.126C201.71 166.379 203.536 168.205 205.789 168.205C216.487 168.205 221.686 168.773 232.838 182.231C237.752 188.163 244.006 190.3 248.898 190.981C243.411 198.464 231.466 209.59 212.662 200.944C205.162 197.496 200.933 191.805 200.093 184.032C199.895 182.201 198.494 180.728 196.674 180.441L196.604 180.43C195.502 180.256 194.374 180.541 193.487 181.22C192.6 181.899 192.03 182.912 191.911 184.023C191.073 191.801 186.844 197.494 179.341 200.944C160.534 209.592 148.589 198.462 143.104 190.981C147.996 190.299 154.251 188.162 159.164 182.231C170.316 168.773 175.516 168.205 186.213 168.205C188.466 168.205 190.293 166.379 190.293 164.126C190.293 161.873 188.466 160.046 186.213 160.046C179.503 160.046 174.247 160.491 169.01 162.98C168.936 162.962 168.862 162.942 168.786 162.928C158.141 160.993 149.733 152.66 145.959 140.885ZM160.444 168.939C158.089 171.087 155.604 173.74 152.881 177.026C146.663 184.53 136.997 183.019 136.611 182.955C136.141 182.871 135.671 182.881 135.216 182.958C141.506 176.79 149 171.592 157.55 167.595C158.493 168.087 159.458 168.535 160.444 168.939ZM196 320.841C150.11 320.841 112.775 283.506 112.775 237.615C112.775 217.912 119.599 200.156 131.849 186.48C131.759 187.221 131.869 187.986 132.195 188.688C132.361 189.046 136.35 197.527 144.451 204.211C152.177 210.584 165.091 216.476 182.749 208.357C188.591 205.671 193.049 201.844 196 197.042C198.952 201.844 203.41 205.672 209.252 208.357C215.402 211.186 220.977 212.314 225.958 212.314C235.276 212.314 242.515 208.364 247.55 204.211C255.651 197.528 259.64 189.046 259.806 188.688C260.131 187.986 260.242 187.222 260.152 186.481C272.402 200.158 279.226 217.913 279.226 237.615C279.226 283.505 241.891 320.841 196 320.841Z" fill="#9C9C9C"/>
<path d="M158.516 285.421C147.679 276.586 140.279 264.204 137.681 250.555C137.259 248.342 135.123 246.89 132.91 247.311C130.697 247.732 129.244 249.868 129.666 252.081C132.623 267.613 141.038 281.699 153.361 291.745C154.118 292.362 155.03 292.663 155.936 292.663C157.12 292.663 158.294 292.15 159.1 291.161C160.524 289.414 160.262 286.845 158.516 285.421Z" fill="#9C9C9C"/>
<path d="M132.552 243.506C134.805 243.506 136.631 241.68 136.631 239.427V239.381C136.631 237.128 134.805 235.302 132.552 235.302C130.298 235.302 128.472 237.128 128.472 239.381V239.427C128.472 241.68 130.298 243.506 132.552 243.506Z" fill="#9C9C9C"/>
</g>
<defs>
<filter id="filter0_f_98_8655" x="-36" y="0" width="464" height="459" filterUnits="userSpaceOnUse" color-interpolation-filters="sRGB">
<feFlood flood-opacity="0" result="BackgroundImageFix"/>
<feBlend mode="normal" in="SourceGraphic" in2="BackgroundImageFix" result="shape"/>
<feGaussianBlur stdDeviation="50" result="effect1_foregroundBlur_98_8655"/>
</filter>
</defs>
</svg>
