
<svg viewBox="0 0 390 444" fill="none" xmlns="http://www.w3.org/2000/svg">
<g filter="url(#filter0_f_147_2411)">
<path d="M305 214C305 274.751 255.751 324 195 324C134.249 324 85 274.751 85 214C85 153.249 134.249 104 195 104C255.751 104 305 153.249 305 214Z" fill="#DD8C8C"/>
</g>
<path d="M156.272 148.237C127.486 161.087 107.695 188.309 107.695 222.615C107.695 270.829 146.786 309.92 195 309.92C243.215 309.92 282.306 270.829 282.306 222.615C282.306 188.32 262.527 161.105 233.756 148.249L156.272 148.237Z" fill="#D75F5F"/>
<path d="M234.978 164.629C229.005 157.42 224.467 153.539 219.84 151.461L222.946 151.942C238.652 149.086 248.852 134.808 250.892 118.081C245.588 126.24 222.742 120.121 210.911 125.017C199.093 129.906 195.01 147.006 195 147.046C194.991 147.006 190.907 129.906 179.089 125.016C167.258 120.12 144.412 126.24 139.108 118.081C141.148 134.807 151.347 149.086 167.054 151.942L170.16 151.46C165.533 153.539 160.995 157.421 155.022 164.629C147.135 174.148 134.896 171.972 134.896 171.972C134.896 171.972 149.582 203.658 180.045 189.65C190.619 184.788 194.184 176.718 194.966 169.46L195.036 169.471C195.82 176.727 199.387 184.79 209.956 189.65C240.418 203.657 255.105 171.972 255.105 171.972C255.105 171.972 242.866 174.148 234.978 164.629Z" fill="#0ECD7D"/>
<path d="M272.205 175.115C264.423 163.546 253.727 154.009 241.036 147.267C248.449 140.498 253.493 130.452 254.941 118.574C255.171 116.689 254.07 114.896 252.286 114.246C250.501 113.597 248.506 114.265 247.471 115.857C245.673 118.623 237.112 118.676 230.234 118.718C222.86 118.764 215.236 118.811 209.35 121.246C205.548 122.819 202.073 125.594 199.079 129.396V124.336C199.079 122.083 197.253 120.256 195 120.256C192.746 120.256 190.92 122.083 190.92 124.336V129.394C188.292 126.044 184.919 123.013 180.649 121.246C174.763 118.811 167.139 118.764 159.765 118.718C152.887 118.676 144.327 118.623 142.529 115.857C141.494 114.265 139.498 113.597 137.713 114.246C135.929 114.896 134.829 116.689 135.058 118.574C136.507 130.452 141.551 140.498 148.964 147.267C136.277 154.007 125.585 163.539 117.803 175.103C108.521 188.897 103.614 205.326 103.614 222.615C103.614 247.023 113.121 269.971 130.382 287.233C147.643 304.494 170.591 314 195 314C219.409 314 242.357 304.494 259.618 287.233C276.879 269.972 286.385 247.023 286.385 222.615C286.386 205.332 281.482 188.906 272.205 175.115ZM255.785 167.959C255.33 167.882 254.86 167.872 254.39 167.955C254.291 167.973 244.418 169.628 238.12 162.026C235.397 158.74 232.912 156.087 230.557 153.939C231.543 153.535 232.509 153.087 233.451 152.595C242.001 156.592 249.495 161.791 255.785 167.959ZM144.959 125.885C149.27 126.813 154.416 126.844 159.716 126.877C166.305 126.918 173.12 126.96 177.53 128.785C186.343 132.432 190.237 145.101 190.921 147.574V153.704C190.921 155.957 192.748 157.784 195.001 157.784C197.254 157.784 199.08 155.957 199.08 153.704V147.574C199.768 145.091 203.664 132.43 212.471 128.785C216.882 126.96 223.696 126.918 230.285 126.877C235.585 126.844 240.732 126.813 245.043 125.885C241.268 137.659 232.859 145.992 222.217 147.928C222.14 147.942 222.067 147.962 221.992 147.98C216.755 145.491 211.499 145.046 204.789 145.046C202.536 145.046 200.71 146.873 200.71 149.126C200.71 151.379 202.536 153.205 204.789 153.205C215.487 153.205 220.686 153.773 231.838 167.231C236.752 173.163 243.006 175.3 247.898 175.981C242.411 183.464 230.466 194.59 211.662 185.944C204.162 182.496 199.933 176.805 199.093 169.032C198.895 167.201 197.494 165.728 195.674 165.441L195.604 165.43C194.502 165.256 193.374 165.541 192.487 166.22C191.6 166.899 191.03 167.912 190.911 169.023C190.073 176.801 185.844 182.494 178.341 185.944C159.534 194.592 147.589 183.462 142.104 175.981C146.996 175.299 153.251 173.162 158.164 167.231C169.316 153.773 174.516 153.205 185.213 153.205C187.466 153.205 189.293 151.379 189.293 149.126C189.293 146.873 187.466 145.046 185.213 145.046C178.503 145.046 173.247 145.491 168.01 147.98C167.936 147.962 167.862 147.942 167.786 147.928C157.141 145.993 148.733 137.66 144.959 125.885ZM159.444 153.939C157.089 156.087 154.604 158.74 151.881 162.026C145.663 169.53 135.997 168.019 135.611 167.955C135.141 167.871 134.671 167.881 134.216 167.958C140.506 161.79 148 156.592 156.55 152.595C157.493 153.087 158.458 153.535 159.444 153.939ZM195 305.841C149.11 305.841 111.775 268.506 111.775 222.615C111.775 202.912 118.599 185.156 130.849 171.48C130.759 172.221 130.869 172.986 131.195 173.688C131.361 174.046 135.35 182.527 143.451 189.211C151.177 195.584 164.091 201.476 181.749 193.357C187.591 190.671 192.049 186.844 195 182.042C197.952 186.844 202.41 190.672 208.252 193.357C214.402 196.186 219.977 197.314 224.958 197.314C234.276 197.314 241.515 193.364 246.55 189.211C254.651 182.528 258.64 174.046 258.806 173.688C259.131 172.986 259.242 172.222 259.152 171.481C271.402 185.158 278.226 202.913 278.226 222.615C278.226 268.505 240.891 305.841 195 305.841Z" fill="#2F2F2F"/>
<path d="M157.516 270.421C146.679 261.586 139.279 249.204 136.681 235.555C136.259 233.342 134.123 231.89 131.91 232.311C129.697 232.732 128.244 234.868 128.666 237.081C131.623 252.613 140.038 266.699 152.361 276.745C153.118 277.362 154.03 277.663 154.936 277.663C156.12 277.663 157.294 277.15 158.1 276.161C159.524 274.414 159.262 271.845 157.516 270.421Z" fill="#2F2F2F"/>
<path d="M131.552 228.506C133.805 228.506 135.631 226.68 135.631 224.427V224.381C135.631 222.128 133.805 220.302 131.552 220.302C129.298 220.302 127.472 222.128 127.472 224.381V224.427C127.472 226.68 129.298 228.506 131.552 228.506Z" fill="#2F2F2F"/>
<defs>
<filter id="filter0_f_147_2411" x="-35" y="-16" width="460" height="460" filterUnits="userSpaceOnUse" color-interpolation-filters="sRGB">
<feFlood flood-opacity="0" result="BackgroundImageFix"/>
<feBlend mode="normal" in="SourceGraphic" in2="BackgroundImageFix" result="shape"/>
<feGaussianBlur stdDeviation="60" result="effect1_foregroundBlur_147_2411"/>
</filter>
</defs>
</svg>
