<svg  height="40px" viewBox="0 0 109 51" fill="none" xmlns="http://www.w3.org/2000/svg">
<g clip-path="url(#clip0_59_3042)">
<path d="M92.2017 19.2064C87.955 16.5689 82.6006 16.2847 78.0578 19.1375C71.6733 23.1468 69.9526 31.4303 74.2151 37.6376C78.4777 43.8449 87.1102 45.6269 93.4948 41.6176C98.0362 38.7657 99.8915 33.9562 99.0503 29.1829L92.2017 19.2064Z" fill="#D75F5F"/>
<path d="M96.9892 30.7025C97.4158 29.3341 97.5285 28.427 97.3947 27.6585L97.6055 28.0984C99.3722 29.8831 102.165 30.0087 104.56 28.8805C103.011 28.8762 101.801 25.426 100.107 24.3099C98.4148 23.1951 95.7894 24.0913 95.7832 24.0934C95.7876 24.0889 97.691 22.1412 97.2938 20.213C96.8961 18.2827 94.066 15.8503 94.6776 14.489C92.643 16.1425 91.6538 18.643 92.6642 20.9026L93.0026 21.2625C92.3183 20.8397 91.403 20.5782 89.9205 20.4086C87.9627 20.1848 87.1688 18.4281 87.1688 18.4281C87.1688 18.4281 84.2713 22.9539 88.8193 25.7109C90.398 26.6679 91.7818 26.4559 92.8121 25.9529L92.8168 25.9628C91.9253 26.6671 91.1729 27.7969 91.4637 29.5618C92.3019 34.6483 97.7962 33.9043 97.7962 33.9043C97.7962 33.9043 96.426 32.5096 96.9892 30.7025Z" fill="#0ECD7D"/>
<path d="M98.8917 36.3671C99.7358 34.4032 100.053 32.2331 99.8239 30.0386C101.376 30.43 103.152 30.244 104.853 29.4427C105.123 29.3155 105.263 29.0247 105.191 28.741C105.119 28.4572 104.854 28.2559 104.552 28.255C104.027 28.2535 103.263 27.1558 102.649 26.2738C101.991 25.3282 101.311 24.3506 100.468 23.7954C99.9238 23.4366 99.2493 23.22 98.481 23.1508L99.1511 22.73C99.4495 22.5426 99.5298 22.1556 99.3307 21.8655C99.1315 21.5754 98.7281 21.4922 98.4297 21.6795L97.76 22.1001C97.9713 21.4832 98.0744 20.7969 97.9309 20.1002C97.733 19.14 97.0652 18.1545 96.4194 17.2014C95.8169 16.3123 95.067 15.2059 95.2744 14.7443C95.3937 14.4788 95.3058 14.1662 95.062 13.9905C94.8182 13.8147 94.4834 13.8222 94.2542 14.0085C92.8093 15.1828 91.9249 16.6676 91.6839 18.1848C89.6698 17.112 87.4624 16.528 85.2431 16.4878C82.5958 16.4399 79.9864 17.1744 77.697 18.6121C74.4648 20.6418 72.2664 23.774 71.5066 27.4316C70.7469 31.0893 71.5169 34.8343 73.6748 37.9768C75.8328 41.1192 79.1204 43.2831 82.9321 44.07C86.7439 44.857 90.6232 44.1724 93.8554 42.1427C96.144 40.7055 97.8856 38.7084 98.8917 36.3671ZM98.3877 33.6581C98.3577 33.593 98.3174 33.5317 98.2649 33.4782C98.2537 33.4669 97.1618 32.3334 97.6116 30.8904C97.8061 30.2667 97.9377 29.726 98.0139 29.2442C98.1546 29.3377 98.2993 29.4246 98.4478 29.5051C98.6744 30.9382 98.6484 32.3353 98.3877 33.6581ZM94.1613 15.8911C94.4196 16.5232 94.8704 17.1885 95.3346 17.8736C95.9118 18.7253 96.5086 19.606 96.6568 20.3257C96.9531 21.7635 95.6197 23.3183 95.3526 23.6121L94.5409 24.1218C94.2425 24.3092 94.1621 24.6963 94.3613 24.9863C94.5605 25.2764 94.9639 25.3597 95.2622 25.1723L96.074 24.6625C96.4636 24.5446 98.4846 23.9933 99.7459 24.8241C100.378 25.2402 100.985 26.1139 101.573 26.9589C102.046 27.6385 102.506 28.2985 103.01 28.7763C101.117 29.2694 99.2698 28.8799 98.0726 27.6706C98.064 27.6619 98.0547 27.6542 98.0458 27.6461C97.9124 26.7649 97.5067 26.0512 96.9135 25.1873C96.7143 24.8972 96.3109 24.814 96.0126 25.0013C95.7142 25.1887 95.6338 25.5758 95.833 25.8658C96.7787 27.243 97.1633 27.9596 96.3669 30.5145C96.0159 31.6405 96.2858 32.6233 96.6281 33.3098C95.1521 33.2257 92.6227 32.613 92.1053 29.4731C91.8989 28.2208 92.2785 27.2031 93.2336 26.4486C93.4586 26.2708 93.5297 25.9679 93.4069 25.7097L93.4022 25.6999C93.3276 25.5435 93.1903 25.422 93.022 25.3643C92.8536 25.3066 92.6691 25.3174 92.5114 25.3944C91.4074 25.9333 90.2796 25.8623 89.1594 25.1832C86.3515 23.481 86.7695 21.0177 87.2751 19.6895C87.7978 20.2625 88.6339 20.8901 89.8536 21.0295C92.6218 21.3461 93.1566 21.9683 94.1023 23.3455C94.3015 23.6355 94.7048 23.7188 95.0032 23.5315C95.3016 23.3441 95.382 22.957 95.1828 22.667C94.5895 21.8031 94.0659 21.1634 93.2733 20.6962C93.2691 20.6851 93.2654 20.674 93.2605 20.6629C92.5756 19.1317 92.9357 17.3562 94.1613 15.8911ZM91.727 20.0889C91.2343 19.9642 90.6632 19.865 89.9875 19.7877C88.4441 19.6112 87.7896 18.2411 87.7639 18.186C87.7334 18.1186 87.6906 18.0588 87.6401 18.0067C89.013 18.3037 90.364 18.8362 91.6491 19.6046C91.6672 19.7668 91.6933 19.9283 91.727 20.0889ZM74.7553 37.2983C70.6982 31.3902 72.3414 23.4789 78.4184 19.6627C81.0276 18.0242 83.9821 17.4263 86.8761 17.8661C86.77 17.9161 86.6785 17.9939 86.6144 18.0943C86.5817 18.1454 85.8111 19.3642 85.6423 20.963C85.4813 22.4876 85.8428 24.6403 88.4791 26.2385C89.3512 26.7672 90.2522 27.0229 91.1489 27.0036C90.774 27.7829 90.6613 28.6751 90.8221 29.6505C90.9913 30.6776 91.3347 31.489 91.7751 32.1303C92.599 33.33 93.7619 33.9336 94.757 34.2364C96.3583 34.7236 97.8341 34.5318 97.8961 34.5234C98.0178 34.5069 98.1288 34.4576 98.2189 34.3845C97.4909 37.0989 95.743 39.4539 93.134 41.0923C87.0572 44.9084 78.8124 43.2065 74.7553 37.2983Z" fill="#2F2F2F"/>
<path d="M76.1317 29.5271C76.3436 27.3972 77.3291 25.4148 78.9068 23.9453C79.1626 23.707 79.1659 23.3112 78.9146 23.0613C78.6631 22.8114 78.2519 22.802 77.996 23.0403C76.2008 24.7126 75.0794 26.9673 74.8385 29.3892C74.8237 29.538 74.8645 29.6804 74.9447 29.7971C75.0493 29.9495 75.2211 30.058 75.4233 30.0795C75.7805 30.1176 76.0976 29.8702 76.1317 29.5271Z" fill="#2F2F2F"/>
<path d="M79.3867 22.6987C79.5859 22.9888 79.9893 23.0721 80.2877 22.8847L80.2937 22.8809C80.592 22.6936 80.6724 22.3065 80.4732 22.0164C80.274 21.7264 79.8707 21.6431 79.5723 21.8305L79.5663 21.8342C79.2679 22.0216 79.1876 22.4087 79.3867 22.6987Z" fill="#2F2F2F"/>
</g>
<g clip-path="url(#clip1_59_3042)">
<path d="M41.4278 24.1937C37.9465 27.71 36.6847 32.6943 38.796 37.4833C41.7633 44.2138 49.9707 47.3319 57.1263 44.447C64.2818 41.5621 67.6775 33.766 64.7102 27.0355C62.5995 22.2479 57.9893 19.6323 52.928 19.5591L41.4278 24.1937Z" fill="#D75F5F"/>
<path d="M54.1176 21.7727C52.7875 21.1237 51.875 20.8535 51.0604 20.8402L51.551 20.7216C53.7063 19.3831 54.3412 16.7796 53.6146 14.3225C53.3296 15.7789 49.5623 16.2916 48.1078 17.6829C46.6549 19.0726 47.1012 21.704 47.1022 21.7102C47.0984 21.7052 45.4399 19.5625 43.3851 19.5869C41.3279 19.6114 38.3139 21.8327 37.0246 21.011C38.3568 23.2239 40.7492 24.607 43.256 24.0658L43.6874 23.8127C43.1286 24.3797 42.6939 25.1932 42.2511 26.5568C41.6665 28.3576 39.7161 28.7861 39.7161 28.7861C39.7161 28.7861 43.8459 32.3306 47.5047 28.5525C48.7749 27.241 48.8073 25.9012 48.4766 24.8412L48.4876 24.8385C49.0505 25.8045 50.0762 26.7167 51.9439 26.7628C57.3268 26.8954 57.5565 21.5934 57.5565 21.5934C57.5565 21.5934 55.874 22.6296 54.1176 21.7727Z" fill="#0ECD7D"/>
<path d="M60.2878 21.0091C58.4209 19.8597 56.2465 19.1684 53.9482 18.9865C54.6317 17.598 54.762 15.8938 54.2459 14.1491C54.164 13.8722 53.8903 13.6877 53.5855 13.7038C53.2806 13.72 53.0256 13.9326 52.97 14.2168C52.8734 14.7105 51.6061 15.2301 50.5879 15.6476C49.4964 16.0951 48.3678 16.5579 47.6442 17.25C47.1766 17.6972 46.8318 18.2923 46.6214 19.0023L46.31 18.2959C46.1713 17.9814 45.7878 17.8357 45.4534 17.9705C45.1191 18.1054 44.9604 18.4696 45.0991 18.7842L45.4103 19.4902C44.8141 19.1798 44.127 18.9586 43.3845 18.9673C42.3612 18.9796 41.2268 19.4292 40.1296 19.8641C39.1061 20.2697 37.8325 20.7746 37.3954 20.496C37.1439 20.3357 36.8065 20.3618 36.5816 20.5593C36.3568 20.7567 36.3039 21.0729 36.4539 21.3223C37.4 22.8937 38.7668 23.9944 40.2836 24.4958C38.8156 26.1957 37.8153 28.166 37.3721 30.246C36.8435 32.727 37.1264 35.314 38.1904 37.7275C39.6927 41.1349 42.5158 43.7695 46.1399 45.1464C49.7639 46.5232 53.7548 46.477 57.3773 45.0165C60.9998 43.556 63.8205 40.8559 65.32 37.4135C66.8194 33.9711 66.8178 30.1988 65.3156 26.7914C64.252 24.3787 62.5134 22.3792 60.2878 21.0091ZM57.4105 20.9926C57.3382 21.0091 57.2678 21.0358 57.2033 21.0755C57.1896 21.084 55.8262 21.9056 54.4236 21.2213C53.8174 20.9256 53.2852 20.7039 52.8035 20.545C52.925 20.4295 53.0407 20.3092 53.1503 20.1841C54.6652 20.2305 56.0974 20.5079 57.4105 20.9926ZM38.3733 21.7504C39.0701 21.622 39.8359 21.3185 40.6245 21.0059C41.6049 20.6174 42.6188 20.2155 43.3857 20.2064C44.9181 20.1881 46.2757 21.7237 46.5294 22.028L46.9067 22.8838C47.0453 23.1983 47.4288 23.344 47.7632 23.2092C48.0976 23.0744 48.2563 22.7101 48.1176 22.3956L47.7403 21.5398C47.6895 21.152 47.4886 19.1515 48.5713 18.1157C49.1136 17.597 50.1223 17.1835 51.0977 16.7835C51.8822 16.4618 52.6441 16.1494 53.2268 15.7619C53.3912 17.6315 52.6562 19.2979 51.1958 20.2048C51.1853 20.2114 51.1757 20.2186 51.1657 20.2256C50.2353 20.1915 49.4278 20.4438 48.432 20.8453C48.0976 20.9801 47.939 21.3444 48.0776 21.6589C48.2163 21.9735 48.5998 22.1191 48.9342 21.9843C50.5218 21.3443 51.3283 21.1123 53.8117 22.3239C54.9061 22.8579 55.9657 22.782 56.7337 22.5844C56.38 23.9573 55.2919 26.2252 51.969 26.1434C50.6437 26.1107 49.6659 25.5694 49.0628 24.5346C48.9207 24.2907 48.6221 24.1691 48.3344 24.2378L48.3234 24.2404C48.149 24.2822 47.9992 24.3894 47.9094 24.5373C47.8196 24.6852 47.7973 24.8606 47.8479 25.0228C48.2023 26.1588 47.925 27.2065 47.0238 28.1371C44.7648 30.4697 42.3071 29.6306 41.0327 28.9145C41.7167 28.5267 42.5135 27.854 42.8777 26.7322C43.7045 24.186 44.4412 23.7958 46.0288 23.1557C46.3632 23.0209 46.5219 22.6566 46.3832 22.3421C46.2445 22.0275 45.861 21.8819 45.5266 22.0167C44.5308 22.4182 43.7782 22.7948 43.1542 23.4556C43.142 23.4576 43.1298 23.4591 43.1176 23.4617C41.4188 23.8285 39.6581 23.1684 38.3733 21.7504ZM42.2496 24.8C42.0322 25.2407 41.8267 25.7599 41.6249 26.3814C41.1639 27.801 39.6363 28.1685 39.575 28.1827C39.5001 28.1991 39.431 28.2285 39.3682 28.2666C39.9222 27.0292 40.7145 25.855 41.7374 24.7855C41.9075 24.7979 42.0783 24.8026 42.2496 24.8ZM56.8752 43.8775C50.0645 46.6234 42.2259 43.6455 39.4015 37.2393C38.1889 34.4887 38.1089 31.6018 39.0853 28.9597C39.1175 29.0685 39.181 29.1686 39.2725 29.2471C39.3192 29.2872 40.4331 30.2325 42.0468 30.6808C43.5856 31.1082 45.865 31.158 47.9859 28.968C48.6876 28.2435 49.1137 27.4425 49.2561 26.5956C49.9897 27.0893 50.8869 27.3569 51.9191 27.3823C53.006 27.4091 53.9027 27.233 54.642 26.935C56.0249 26.3774 56.8563 25.3929 57.3478 24.5119C58.1388 23.0942 58.2088 21.6714 58.2114 21.6116C58.2165 21.4941 58.1859 21.3808 58.127 21.2828C60.7867 22.459 62.8922 24.5293 64.1048 27.2796C66.9291 33.6858 63.6859 41.1317 56.8752 43.8775Z" fill="#2F2F2F"/>
<path d="M49.1323 41.1759C46.9802 40.591 45.1199 39.3052 43.8943 37.5554C43.6955 37.2716 43.2891 37.1968 42.9866 37.3879C42.684 37.5792 42.5999 37.9643 42.7987 38.248C44.1934 40.2392 46.3092 41.7021 48.7563 42.3672C48.9067 42.408 49.0605 42.3955 49.195 42.3412C49.3707 42.2704 49.5134 42.1285 49.5722 41.9422C49.676 41.6132 49.479 41.2701 49.1323 41.1759Z" fill="#2F2F2F"/>
<path d="M42.6992 36.8783C43.0336 36.7435 43.1923 36.3792 43.0536 36.0647L43.0508 36.0583C42.9121 35.7438 42.5286 35.5981 42.1942 35.7329C41.8599 35.8678 41.7012 36.232 41.8399 36.5466L41.8426 36.5529C41.9813 36.8674 42.3648 37.0131 42.6992 36.8783Z" fill="#2F2F2F"/>
</g>
<defs>
<clipPath id="clip0_59_3042">
<rect width="31.2352" height="31.2734" fill="white" transform="matrix(0.566078 0.824352 -0.846865 0.531809 91.3184 8.47095)"/>
</clipPath>
<clipPath id="clip1_59_3042">
<rect width="32.0038" height="30.5123" fill="white" transform="matrix(0.927459 -0.373924 0.403406 0.915021 30.2273 23.0806)"/>
</clipPath>
</defs>
</svg>
