<svg width="200" height="200" viewBox="0 0 200 200" fill="none" xmlns="http://www.w3.org/2000/svg">
<g opacity="0.3">
<path d="M61.2719 34.2368C32.4856 47.0872 12.6949 74.3091 12.6949 108.615C12.6949 156.829 51.786 195.92 100 195.92C148.215 195.92 187.306 156.829 187.306 108.615C187.306 74.3196 167.527 47.1048 138.756 34.2485L61.2719 34.2368Z" fill="#D4D1D1"/>
<path d="M139.978 50.629C134.005 43.4204 129.467 39.5392 124.84 37.4606L127.946 37.9423C143.652 35.0864 153.852 20.8075 155.892 4.08096C150.588 12.2403 127.742 6.1208 115.911 11.0165C104.093 15.9063 100.01 33.006 100 33.0458C99.9906 33.0063 95.907 15.9063 84.0891 11.0161C72.2578 6.12041 49.4117 12.2399 44.1082 4.08057C46.148 20.8071 56.3472 35.086 72.0539 37.9419L75.1601 37.4603C70.5332 39.5388 65.9945 43.4208 60.0219 50.6286C52.1348 60.1477 39.8957 57.972 39.8957 57.972C39.8957 57.972 54.5824 89.6579 85.0445 75.6505C95.6191 70.788 99.1844 62.7185 99.966 55.4599L100.036 55.4708C100.82 62.7267 104.387 70.7903 114.956 75.6505C145.418 89.6571 160.105 57.972 160.105 57.972C160.105 57.972 147.866 60.1481 139.978 50.629Z" fill="#D4D1D1"/>
<path d="M177.205 61.1151C169.423 49.546 158.727 40.0092 146.036 33.267C153.449 26.4979 158.493 16.4518 159.941 4.57407C160.171 2.68931 159.07 0.895558 157.286 0.246339C155.501 -0.40288 153.506 0.264698 152.471 1.85689C150.673 4.6229 142.112 4.67603 135.234 4.71821C127.86 4.76353 120.236 4.81079 114.35 7.24595C110.548 8.81939 107.073 11.5936 104.079 15.3963V10.3362C104.079 8.08306 102.253 6.2565 99.9996 6.2565C97.7465 6.2565 95.9199 8.08306 95.9199 10.3362V15.3936C93.2918 12.0436 89.9187 9.01314 85.6488 7.24595C79.7633 4.81079 72.1391 4.76392 64.7652 4.71821C57.8867 4.67564 49.3265 4.62329 47.5285 1.85689C46.4937 0.26548 44.498 -0.40327 42.7133 0.246339C40.9289 0.895558 39.8285 2.68931 40.0582 4.57407C41.507 16.4522 46.5508 26.4983 53.9637 33.2674C41.2773 40.0073 30.5848 49.5385 22.8031 61.1026C13.5211 74.8967 8.61444 91.326 8.61444 108.615C8.61444 133.023 18.1207 155.971 35.3816 173.233C52.6426 190.494 75.5914 200 100 200C124.409 200 147.357 190.494 164.618 173.233C181.879 155.972 191.385 133.023 191.385 108.615C191.386 91.3319 186.482 74.9065 177.205 61.1151ZM160.785 53.9588C160.33 53.8819 159.86 53.8721 159.39 53.9553C159.291 53.9733 149.418 55.6276 143.12 48.0256C140.397 44.7401 137.912 42.0866 135.557 39.9389C136.543 39.535 137.509 39.0866 138.451 38.5948C147.001 42.5917 154.495 47.7909 160.785 53.9588ZM49.959 11.885C54.2695 12.8127 59.4164 12.8444 64.7164 12.8772C71.3055 12.9178 78.1195 12.96 82.5305 14.7854C91.3434 18.4319 95.2371 31.1006 95.9211 33.5741V39.7042C95.9211 41.9573 97.7477 43.7838 100.001 43.7838C102.254 43.7838 104.08 41.9573 104.08 39.7042V33.5737C104.768 31.0909 108.664 18.4299 117.471 14.7854C121.882 12.96 128.696 12.9182 135.285 12.8772C140.585 12.8444 145.732 12.8127 150.043 11.885C146.268 23.6592 137.859 31.9924 127.217 33.9276C127.14 33.9417 127.067 33.9624 126.992 33.9803C121.755 31.4913 116.499 31.0459 109.789 31.0459C107.536 31.0459 105.71 32.8725 105.71 35.1256C105.71 37.3788 107.536 39.2053 109.789 39.2053C120.487 39.2053 125.686 39.7725 136.838 53.2315C141.752 59.1631 148.006 61.2999 152.898 61.9811C147.411 69.4643 135.466 80.5905 116.662 71.944C109.162 68.4956 104.933 62.8053 104.093 55.0323C103.895 53.2006 102.494 51.7284 100.674 51.4409L100.604 51.4299C99.5015 51.2565 98.3742 51.5413 97.4875 52.2202C96.6004 52.8995 96.0305 53.912 95.9109 55.0229C95.073 62.801 90.8441 68.494 83.341 71.944C64.5336 80.592 52.5891 69.4616 47.1043 61.9811C51.9957 61.2995 58.2508 59.162 63.1644 53.2315C74.3164 39.7725 79.5156 39.2053 90.2129 39.2053C92.466 39.2053 94.2926 37.3788 94.2926 35.1256C94.2926 32.8725 92.466 31.0459 90.2129 31.0459C83.5027 31.0459 78.2469 31.4913 73.0101 33.9803C72.9355 33.9624 72.8621 33.9417 72.7855 33.9276C62.1414 31.9928 53.7332 23.66 49.959 11.885ZM64.4441 39.9389C62.0887 42.0866 59.6035 44.7405 56.8812 48.0256C50.6633 55.5295 40.9969 54.019 40.6105 53.9549C40.1406 53.8713 39.6707 53.8807 39.2156 53.9581C45.5062 47.7905 53.0004 42.5917 61.5504 38.5948C62.4926 39.0874 63.4578 39.5346 64.4441 39.9389ZM100 191.841C54.1098 191.841 16.7746 154.506 16.7746 108.615C16.7746 88.9116 23.5988 71.1561 35.8488 57.4803C35.7586 58.2213 35.8691 58.9858 36.1949 59.6877C36.3609 60.0456 40.3496 68.5272 48.4512 75.2108C56.1766 81.5842 69.0914 87.4764 86.7492 79.3573C92.591 76.6713 97.0492 72.844 100 68.0424C102.952 72.844 107.41 76.6717 113.252 79.3573C119.402 82.1858 124.977 83.3139 129.958 83.3139C139.276 83.3135 146.515 79.3643 151.55 75.2112C159.651 68.5276 163.64 60.0456 163.806 59.6881C164.131 58.9862 164.242 58.2217 164.152 57.4815C176.402 71.1577 183.226 88.9131 183.226 108.615C183.226 154.505 145.891 191.841 100 191.841Z" fill="#9C9C9C"/>
<path d="M62.516 156.421C51.6793 147.586 44.2793 135.204 41.6809 121.555C41.2594 119.342 39.1231 117.89 36.9102 118.311C34.6969 118.732 33.2442 120.868 33.6657 123.081C36.6231 138.613 45.0379 152.699 57.3606 162.745C58.1176 163.362 59.0297 163.663 59.936 163.663C61.12 163.663 62.2942 163.15 63.1 162.161C64.5239 160.414 64.2621 157.845 62.516 156.421Z" fill="#9C9C9C"/>
<path d="M36.5516 114.506C38.8047 114.506 40.6312 112.68 40.6312 110.427V110.381C40.6312 108.128 38.8047 106.302 36.5516 106.302C34.2984 106.302 32.4719 108.128 32.4719 110.381V110.427C32.4719 112.68 34.2984 114.506 36.5516 114.506Z" fill="#9C9C9C"/>
</g>
</svg>
