<svg height="40px" viewBox="0 0 109 51" fill="none" xmlns="http://www.w3.org/2000/svg">
<g clip-path="url(#clip0_59_3150)">
<path d="M25.4466 5.18677C20.8103 7.13356 17.6228 11.2576 17.6228 16.4548C17.6228 23.759 23.9188 29.6813 31.6843 29.6813C39.4498 29.6813 45.7459 23.759 45.7459 16.4548C45.7459 11.2592 42.5603 7.13622 37.9263 5.18854L25.4466 5.18677Z" fill="#D75F5F"/>
<path d="M38.1232 7.67008C37.1612 6.57801 36.4302 5.99001 35.685 5.67513L36.1852 5.74809C38.715 5.31544 40.3577 3.15224 40.6863 0.618223C39.8321 1.85434 36.1524 0.927252 34.2469 1.66893C32.3435 2.40973 31.6858 5.00026 31.6843 5.00629C31.6828 5.00032 31.025 2.40973 29.1216 1.66887C27.2161 0.927193 23.5364 1.85428 22.6822 0.618164C23.0108 3.15218 24.6535 5.31538 27.1832 5.74803L27.6835 5.67507C26.9383 5.98995 26.2073 6.57807 25.2453 7.67002C23.975 9.11214 22.0038 8.78252 22.0038 8.78252C22.0038 8.78252 24.3692 13.5828 29.2755 11.4607C30.9787 10.7241 31.5529 9.50159 31.6788 8.40194L31.69 8.4036C31.8163 9.50284 32.3908 10.7245 34.0931 11.4607C38.9993 13.5827 41.3648 8.78252 41.3648 8.78252C41.3648 8.78252 39.3936 9.1122 38.1232 7.67008Z" fill="#0ECD7D"/>
<path d="M44.119 9.25872C42.8656 7.50603 41.1429 6.06125 39.0989 5.03984C40.2929 4.01434 41.1052 2.49239 41.3384 0.692956C41.3754 0.40742 41.1982 0.135674 40.9108 0.0373195C40.6234 -0.0610348 40.302 0.0401008 40.1353 0.281312C39.8457 0.700353 38.4669 0.708401 37.3591 0.714792C36.1715 0.721657 34.9435 0.728818 33.9955 1.09774C33.3831 1.33611 32.8235 1.75639 32.3413 2.33249V1.56589C32.3413 1.22455 32.0471 0.947837 31.6842 0.947837C31.3213 0.947837 31.0271 1.22455 31.0271 1.56589V2.33208C30.6038 1.82456 30.0605 1.36546 29.3728 1.09774C28.4249 0.728818 27.1969 0.721716 26.0093 0.714792C24.9014 0.708342 23.5227 0.700412 23.2331 0.281312C23.0664 0.0402192 22.745 -0.061094 22.4576 0.0373195C22.1702 0.135674 21.9929 0.40742 22.0299 0.692956C22.2633 2.49245 23.0756 4.0144 24.2696 5.0399C22.2263 6.06096 20.5041 7.50491 19.2508 9.25682C17.7558 11.3466 16.9655 13.8356 16.9655 16.4547C16.9655 20.1525 18.4966 23.6291 21.2767 26.2441C24.0568 28.8592 27.753 30.2993 31.6843 30.2993C35.6155 30.2993 39.3116 28.8591 42.0917 26.2441C44.8719 23.6292 46.4029 20.1525 46.4029 16.4547C46.403 13.8365 45.6132 11.3481 44.119 9.25872ZM41.4744 8.17457C41.401 8.16291 41.3254 8.16143 41.2497 8.17404C41.2338 8.17676 39.6437 8.42738 38.6292 7.27571C38.1907 6.77796 37.7904 6.37596 37.4111 6.0506C37.57 5.98941 37.7254 5.92147 37.8773 5.84697C39.2543 6.45248 40.4613 7.24014 41.4744 8.17457ZM23.6246 1.80054C24.3188 1.94108 25.1478 1.94588 26.0014 1.95085C27.0627 1.957 28.1601 1.96339 28.8706 2.23994C30.29 2.79236 30.9171 4.71163 31.0273 5.08635V6.01504C31.0273 6.35638 31.3215 6.63309 31.6844 6.63309C32.0473 6.63309 32.3415 6.35638 32.3415 6.01504V5.08629C32.4522 4.71015 33.0797 2.79207 34.4982 2.23994C35.2086 1.96339 36.306 1.95706 37.3673 1.95085C38.221 1.94588 39.0499 1.94108 39.7442 1.80054C39.1362 3.58429 37.7819 4.84674 36.0678 5.13991C36.0555 5.14204 36.0437 5.14517 36.0317 5.1479C35.1882 4.77081 34.3416 4.70335 33.261 4.70335C32.8981 4.70335 32.6039 4.98007 32.6039 5.32141C32.6039 5.66275 32.8981 5.93947 33.261 5.93947C34.9839 5.93947 35.8213 6.02539 37.6174 8.06438C38.409 8.963 39.4162 9.28671 40.2041 9.38991C39.3204 10.5236 37.3965 12.2092 34.3678 10.8993C33.1599 10.3768 32.4788 9.51478 32.3435 8.33719C32.3116 8.0597 32.0859 7.83666 31.7928 7.79311L31.7816 7.79145C31.604 7.76517 31.4224 7.80832 31.2796 7.91117C31.1367 8.01408 31.0449 8.16747 31.0257 8.33577C30.8907 9.51413 30.2096 10.3766 29.0011 10.8993C25.972 12.2094 24.0482 10.5232 23.1648 9.38991C23.9526 9.28665 24.9601 8.96282 25.7515 8.06438C27.5476 6.02539 28.385 5.93947 30.1079 5.93947C30.4708 5.93947 30.765 5.66275 30.765 5.32141C30.765 4.98007 30.4708 4.70335 30.1079 4.70335C29.0272 4.70335 28.1807 4.77081 27.3372 5.1479C27.3252 5.14517 27.3134 5.14204 27.301 5.13991C25.5867 4.8468 24.2324 3.58441 23.6246 1.80054ZM25.9576 6.0506C25.5782 6.37596 25.1779 6.77802 24.7395 7.27571C23.738 8.41253 22.1811 8.18368 22.1189 8.17398C22.0432 8.16131 21.9675 8.16273 21.8942 8.17445C22.9074 7.24009 24.1144 6.45248 25.4915 5.84697C25.6432 5.92159 25.7987 5.98935 25.9576 6.0506ZM31.6843 29.0632C24.2931 29.0632 18.2798 23.4071 18.2798 16.4548C18.2798 13.4698 19.379 10.7799 21.352 8.70806C21.3374 8.82032 21.3552 8.93614 21.4077 9.04248C21.4344 9.09669 22.0769 10.3816 23.3817 11.3942C24.626 12.3597 26.7061 13.2524 29.5501 12.0223C30.4909 11.6154 31.209 11.0356 31.6843 10.3082C32.1597 11.0356 32.8777 11.6155 33.8186 12.0223C34.8092 12.4509 35.707 12.6218 36.5093 12.6218C38.0101 12.6217 39.1761 12.0234 39.9869 11.3942C41.2918 10.3817 41.9342 9.09669 41.9609 9.04254C42.0133 8.93619 42.0311 8.82038 42.0167 8.70824C43.9897 10.7801 45.0888 13.47 45.0888 16.4548C45.0888 23.407 39.0755 29.0632 31.6843 29.0632Z" fill="#2F2F2F"/>
<path d="M25.647 23.6972C23.9016 22.3587 22.7098 20.4829 22.2913 18.4151C22.2234 18.0798 21.8793 17.8599 21.5229 17.9236C21.1664 17.9874 20.9325 18.311 21.0003 18.6463C21.4767 20.9992 22.832 23.1333 24.8167 24.6552C24.9386 24.7487 25.0855 24.7943 25.2315 24.7943C25.4222 24.7943 25.6113 24.7166 25.7411 24.5667C25.9704 24.3021 25.9283 23.9128 25.647 23.6972Z" fill="#2F2F2F"/>
<path d="M21.4652 17.3472C21.828 17.3472 22.1222 17.0705 22.1222 16.7292V16.7223C22.1222 16.381 21.828 16.1042 21.4652 16.1042C21.1023 16.1042 20.8081 16.381 20.8081 16.7223V16.7292C20.8081 17.0705 21.1023 17.3472 21.4652 17.3472Z" fill="#2F2F2F"/>
</g>
<g clip-path="url(#clip1_59_3150)">
<path d="M63.9773 10.6864C58.9768 11.4491 54.8026 14.6685 53.4287 19.6969C51.4977 26.7638 56.0236 34.0159 63.5368 35.8932C71.0501 37.7706 78.7073 33.5628 80.6382 26.4959C82.0118 21.4691 80.0197 16.7099 76.0511 13.7052L63.9773 10.6864Z" fill="#D75F5F"/>
<path d="M75.5855 16.1539C74.9435 14.8648 74.3917 14.1191 73.7539 13.6343L74.2186 13.8259C76.7806 14.0188 78.9418 12.323 79.9296 9.95079C78.7764 10.9402 75.4613 9.15367 73.4217 9.41059C71.3843 9.66717 70.0631 12.0145 70.06 12.02C70.0601 12.0139 70.1086 9.34841 68.4629 8.17146C66.8153 6.99319 63.0101 7.00058 62.5104 5.59811C62.1584 8.12924 63.1759 10.6193 65.5091 11.6495L66.0124 11.6998C65.2081 11.8243 64.3454 12.2166 63.126 13.0405C61.5157 14.1287 59.6956 13.3332 59.6956 13.3332C59.6956 13.3332 60.7152 18.5495 66.0231 17.6825C67.8657 17.3815 68.7445 16.3375 69.157 15.304L69.1674 15.3083C68.999 16.4024 69.2319 17.7232 70.6842 18.8471C74.8701 22.0863 78.4278 18.0139 78.4278 18.0139C78.4278 18.0139 76.4334 17.8563 75.5855 16.1539Z" fill="#0ECD7D"/>
<path d="M80.9666 19.1404C80.2173 17.1417 78.9325 15.3274 77.2249 13.845C78.6512 13.1414 79.8395 11.8653 80.5408 10.1807C80.6521 9.91339 80.5525 9.60762 80.3004 9.44299C80.0483 9.27833 79.7106 9.29849 79.4856 9.49156C79.0946 9.82697 77.7585 9.50143 76.685 9.23979C75.5341 8.95931 74.3441 8.66937 73.3295 8.79713C72.6739 8.87969 72.0214 9.15104 71.4025 9.59184L71.6051 8.85015C71.6954 8.5199 71.4839 8.18105 71.1328 8.09332C70.7817 8.00558 70.4239 8.20219 70.3337 8.53244L70.1311 9.27373C69.8558 8.68037 69.4515 8.10484 68.8569 7.67955C68.0373 7.09345 66.8511 6.78971 65.7039 6.49589C64.6337 6.22181 63.3018 5.88082 63.1325 5.40533C63.0349 5.13177 62.7507 4.95604 62.4466 4.98176C62.1425 5.00744 61.8992 5.22752 61.8595 5.51272C61.6096 7.31017 61.9932 8.97908 62.8772 10.2599C60.6304 10.7538 58.5824 11.7345 56.9067 13.1265C54.9078 14.787 53.4852 17.0041 52.7928 19.5381C51.8152 23.1158 52.3775 26.8496 54.376 30.0518C56.3744 33.254 59.5698 35.5409 63.3734 36.4913C67.177 37.4417 71.1337 36.9419 74.5148 35.084C77.896 33.2261 80.2963 30.2326 81.2739 26.6549C81.9662 24.1216 81.8599 21.5232 80.9666 19.1404ZM78.6945 17.4522C78.6266 17.4231 78.5538 17.4034 78.4773 17.3973C78.4611 17.3961 76.8564 17.2542 76.1793 15.8946C75.8867 15.3071 75.6056 14.8213 75.3247 14.4148C75.4946 14.3941 75.663 14.3659 75.8295 14.3305C77.0018 15.2493 77.9613 16.3032 78.6945 17.4522ZM63.1096 6.96984C63.7441 7.27366 64.5449 7.47871 65.3695 7.68989C66.3946 7.95241 67.4548 8.22392 68.069 8.66323C69.2963 9.54087 69.3957 11.5494 69.4032 11.9386L69.1577 12.8371C69.0674 13.1674 69.2789 13.5062 69.63 13.5939C69.9811 13.6817 70.3389 13.4851 70.4291 13.1548L70.6747 12.2562C70.8812 11.9191 71.9954 10.215 73.5138 10.0237C74.2743 9.92794 75.3377 10.1871 76.3662 10.4377C77.1934 10.6393 77.9967 10.835 78.7056 10.8669C77.6458 12.4457 76.0018 13.3397 74.2658 13.209C74.2533 13.2081 74.2411 13.2082 74.2287 13.208C73.5124 12.6392 72.7111 12.3693 71.6655 12.108C71.3144 12.0203 70.9566 12.2169 70.8664 12.5472C70.7762 12.8774 70.9876 13.2163 71.3387 13.304C73.0057 13.7205 73.7932 14.0061 74.9919 16.4131C75.5202 17.4739 76.4091 18.0306 77.1442 18.3209C75.9895 19.2041 73.6824 20.3698 71.0985 18.3703C70.0679 17.5728 69.6368 16.5741 69.8172 15.402C69.8597 15.1258 69.7003 14.8555 69.4282 14.7425L69.4178 14.7382C69.2529 14.6698 69.0659 14.6677 68.9005 14.7326C68.735 14.7977 68.6057 14.9239 68.5426 15.0821C68.1005 16.1895 67.2135 16.8593 65.9061 17.0728C62.629 17.6081 61.2135 15.5115 60.6584 14.2015C61.4479 14.2921 62.5082 14.2223 63.5114 13.5444C65.7883 12.0059 66.6212 12.1252 68.2881 12.5417C68.6392 12.6295 68.997 12.4328 69.0873 12.1026C69.1775 11.7723 68.966 11.4335 68.6149 11.3458C67.5693 11.0845 66.7324 10.9451 65.8167 11.106C65.8058 11.1005 65.7952 11.0946 65.7838 11.0896C64.2026 10.3915 63.2261 8.84272 63.1096 6.96984ZM64.2432 11.6459C63.7901 11.8689 63.2966 12.1612 62.7408 12.5367C61.4713 13.3945 60.0255 12.7967 59.9679 12.7722C59.898 12.7417 59.8244 12.7248 59.7504 12.7184C60.9777 12.0593 62.3537 11.5891 63.8461 11.3362C63.9732 11.4451 64.1057 11.5482 64.2432 11.6459ZM63.7002 35.2954C56.5491 33.5085 52.2264 26.5824 54.0644 19.8559C54.8535 16.9679 56.628 14.6311 59.0847 13.1036C59.0409 13.2087 59.0275 13.325 59.0502 13.4406C59.0617 13.4995 59.3436 14.898 60.3384 16.1931C61.287 17.4281 63.0635 18.7946 66.1403 18.2921C67.1582 18.1259 68.0062 17.7385 68.6584 17.1496C68.926 17.9684 69.4674 18.703 70.2701 19.3241C71.1153 19.9782 71.9388 20.3606 72.715 20.5545C74.1671 20.9173 75.4533 20.6203 76.4042 20.2076C77.9343 19.5434 78.8956 18.4555 78.9358 18.4096C79.0146 18.3193 79.0624 18.2116 79.0781 18.0996C80.4393 20.5812 80.7916 23.4494 80.0025 26.3372C78.1646 33.0636 70.8513 37.0823 63.7002 35.2954Z" fill="#2F2F2F"/>
<path d="M59.2776 28.6443C57.9428 26.9273 57.2855 24.8243 57.4273 22.7225C57.4502 22.3817 57.1755 22.0857 56.8138 22.0612C56.452 22.0368 56.1401 22.2933 56.1171 22.6341C55.956 25.0258 56.7031 27.4181 58.221 29.3704C58.3142 29.4904 58.4443 29.57 58.5855 29.6053C58.77 29.6514 58.9735 29.6219 59.1387 29.5083C59.4306 29.3077 59.4927 28.9209 59.2776 28.6443Z" fill="#2F2F2F"/>
<path d="M56.9103 21.4894C57.2614 21.5771 57.6192 21.3805 57.7094 21.0503L57.7112 21.0436C57.8015 20.7134 57.59 20.3745 57.2389 20.2868C56.8878 20.1991 56.53 20.3957 56.4398 20.7259L56.4379 20.7326C56.3477 21.0628 56.5592 21.4017 56.9103 21.4894Z" fill="#2F2F2F"/>
</g>
<g clip-path="url(#clip2_59_3150)">
<path d="M92.2017 19.2064C87.955 16.5689 82.6006 16.2847 78.0578 19.1375C71.6733 23.1468 69.9526 31.4303 74.2151 37.6376C78.4777 43.8449 87.1102 45.6269 93.4948 41.6176C98.0362 38.7657 99.8915 33.9562 99.0503 29.1829L92.2017 19.2064Z" fill="#D75F5F"/>
<path d="M96.9892 30.7024C97.4158 29.334 97.5285 28.4269 97.3947 27.6584L97.6055 28.0983C99.3722 29.8829 102.165 30.0086 104.56 28.8804C103.011 28.8761 101.801 25.4258 100.107 24.3098C98.4148 23.195 95.7894 24.0912 95.7832 24.0933C95.7876 24.0888 97.691 22.1411 97.2938 20.2129C96.8961 18.2826 94.066 15.8502 94.6776 14.4889C92.643 16.1424 91.6538 18.6429 92.6642 20.9025L93.0026 21.2624C92.3183 20.8395 91.403 20.578 89.9205 20.4085C87.9627 20.1846 87.1688 18.428 87.1688 18.428C87.1688 18.428 84.2713 22.9537 88.8193 25.7107C90.398 26.6678 91.7818 26.4558 92.8121 25.9528L92.8168 25.9627C91.9253 26.667 91.1729 27.7968 91.4637 29.5616C92.3019 34.6482 97.7962 33.9042 97.7962 33.9042C97.7962 33.9042 96.426 32.5094 96.9892 30.7024Z" fill="#0ECD7D"/>
<path d="M98.8917 36.3673C99.7358 34.4033 100.053 32.2332 99.8239 30.0387C101.376 30.4302 103.152 30.2441 104.853 29.4428C105.123 29.3157 105.263 29.0248 105.191 28.7411C105.119 28.4573 104.854 28.256 104.552 28.2551C104.027 28.2536 103.263 27.1559 102.649 26.2739C101.991 25.3284 101.311 24.3507 100.468 23.7955C99.9238 23.4368 99.2493 23.2202 98.481 23.1509L99.1511 22.7301C99.4495 22.5428 99.5298 22.1557 99.3307 21.8656C99.1315 21.5756 98.7281 21.4923 98.4297 21.6797L97.76 22.1002C97.9713 21.4833 98.0744 20.797 97.9309 20.1003C97.733 19.1401 97.0652 18.1546 96.4194 17.2015C95.8169 16.3124 95.067 15.206 95.2744 14.7444C95.3937 14.4789 95.3058 14.1663 95.062 13.9906C94.8182 13.8148 94.4834 13.8223 94.2542 14.0086C92.8093 15.1829 91.9249 16.6677 91.6839 18.1849C89.6698 17.1121 87.4624 16.5281 85.2431 16.4879C82.5958 16.44 79.9864 17.1745 77.697 18.6122C74.4648 20.6419 72.2664 23.7741 71.5066 27.4318C70.7469 31.0894 71.5169 34.8344 73.6748 37.9769C75.8328 41.1193 79.1204 43.2832 82.9321 44.0702C86.7439 44.8571 90.6232 44.1726 93.8554 42.1428C96.144 40.7057 97.8856 38.7085 98.8917 36.3673ZM98.3877 33.6582C98.3577 33.5932 98.3174 33.5319 98.2649 33.4783C98.2537 33.467 97.1618 32.3336 97.6116 30.8905C97.8061 30.2668 97.9377 29.7261 98.0139 29.2443C98.1546 29.3378 98.2993 29.4248 98.4478 29.5052C98.6744 30.9383 98.6484 32.3355 98.3877 33.6582ZM94.1613 15.8913C94.4196 16.5234 94.8704 17.1886 95.3346 17.8737C95.9118 18.7254 96.5086 19.6062 96.6568 20.3258C96.9531 21.7637 95.6197 23.3185 95.3526 23.6122L94.5409 24.122C94.2425 24.3093 94.1621 24.6964 94.3613 24.9865C94.5605 25.2765 94.9639 25.3598 95.2622 25.1724L96.074 24.6626C96.4636 24.5447 98.4846 23.9934 99.7459 24.8242C100.378 25.2403 100.985 26.1141 101.573 26.959C102.046 27.6386 102.506 28.2986 103.01 28.7764C101.117 29.2696 99.2698 28.88 98.0726 27.6707C98.064 27.6621 98.0547 27.6543 98.0458 27.6462C97.9124 26.765 97.5067 26.0513 96.9135 25.1874C96.7143 24.8974 96.3109 24.8141 96.0126 25.0015C95.7142 25.1888 95.6338 25.5759 95.833 25.866C96.7787 27.2432 97.1633 27.9597 96.3669 30.5147C96.0159 31.6406 96.2858 32.6234 96.6281 33.3099C95.1521 33.2258 92.6227 32.6131 92.1053 29.4732C91.8989 28.2209 92.2785 27.2033 93.2336 26.4487C93.4586 26.2709 93.5297 25.9681 93.4069 25.7099L93.4022 25.7C93.3276 25.5436 93.1903 25.4221 93.022 25.3644C92.8536 25.3067 92.6691 25.3175 92.5114 25.3945C91.4074 25.9335 90.2796 25.8624 89.1594 25.1833C86.3515 23.4812 86.7695 21.0178 87.2751 19.6896C87.7978 20.2627 88.6339 20.8902 89.8536 21.0297C92.6218 21.3462 93.1566 21.9684 94.1023 23.3456C94.3015 23.6357 94.7048 23.7189 95.0032 23.5316C95.3016 23.3442 95.382 22.9572 95.1828 22.6671C94.5895 21.8032 94.0659 21.1636 93.2733 20.6963C93.2691 20.6852 93.2654 20.6741 93.2605 20.663C92.5756 19.1318 92.9357 17.3563 94.1613 15.8913ZM91.727 20.089C91.2343 19.9644 90.6632 19.8651 89.9875 19.7878C88.4441 19.6113 87.7896 18.2412 87.7639 18.1861C87.7334 18.1187 87.6906 18.059 87.6401 18.0068C89.013 18.3038 90.364 18.8363 91.6491 19.6047C91.6672 19.767 91.6933 19.9284 91.727 20.089ZM74.7553 37.2984C70.6982 31.3903 72.3414 23.479 78.4184 19.6628C81.0276 18.0243 83.9821 17.4264 86.8761 17.8663C86.77 17.9163 86.6785 17.9941 86.6144 18.0944C86.5817 18.1455 85.8111 19.3643 85.6423 20.9631C85.4813 22.4877 85.8428 24.6404 88.4791 26.2386C89.3512 26.7673 90.2522 27.023 91.1489 27.0037C90.774 27.783 90.6613 28.6752 90.8221 29.6506C90.9913 30.6777 91.3347 31.4892 91.7751 32.1305C92.599 33.3301 93.7619 33.9337 94.757 34.2365C96.3583 34.7237 97.8341 34.5319 97.8961 34.5235C98.0178 34.5071 98.1288 34.4577 98.2189 34.3846C97.4909 37.099 95.743 39.4541 93.134 41.0924C87.0572 44.9085 78.8124 43.2066 74.7553 37.2984Z" fill="#2F2F2F"/>
<path d="M76.1317 29.5271C76.3436 27.3972 77.3291 25.4148 78.9068 23.9453C79.1626 23.707 79.1659 23.3112 78.9146 23.0613C78.6631 22.8114 78.2519 22.802 77.996 23.0403C76.2008 24.7126 75.0794 26.9673 74.8385 29.3892C74.8237 29.538 74.8645 29.6804 74.9447 29.7971C75.0493 29.9495 75.2211 30.058 75.4233 30.0795C75.7805 30.1176 76.0976 29.8702 76.1317 29.5271Z" fill="#2F2F2F"/>
<path d="M79.3867 22.6987C79.5859 22.9888 79.9893 23.0721 80.2877 22.8847L80.2937 22.8809C80.592 22.6936 80.6724 22.3065 80.4732 22.0164C80.274 21.7264 79.8707 21.6431 79.5723 21.8305L79.5663 21.8342C79.2679 22.0216 79.1876 22.4087 79.3867 22.6987Z" fill="#2F2F2F"/>
</g>
<g clip-path="url(#clip3_59_3150)">
<path d="M9.86855 16.2964C5.23217 18.2432 2.04466 22.3672 2.04466 27.5644C2.04466 34.8686 8.34073 40.7909 16.1062 40.7909C23.8717 40.7909 30.1678 34.8686 30.1678 27.5644C30.1678 22.3688 26.9822 18.2458 22.3482 16.2982L9.86855 16.2964Z" fill="#D75F5F"/>
<path d="M22.5451 18.7797C21.5831 17.6876 20.8521 17.0996 20.1069 16.7847L20.6072 16.8577C23.1369 16.4251 24.7796 14.2619 25.1082 11.7278C24.254 12.964 20.5743 12.0369 18.6688 12.7786C16.7655 13.5193 16.1077 16.1099 16.1062 16.1159C16.1047 16.1099 15.447 13.5193 13.5435 12.7785C11.638 12.0368 7.95834 12.9639 7.10415 11.7278C7.43269 14.2618 9.07539 16.425 11.6051 16.8577L12.1054 16.7847C11.3602 17.0996 10.6292 17.6877 9.66723 18.7796C8.39692 20.2218 6.42567 19.8921 6.42567 19.8921C6.42567 19.8921 8.79114 24.6924 13.6974 22.5704C15.4006 21.8337 15.9748 20.6112 16.1007 19.5116L16.1119 19.5132C16.2382 20.6125 16.8127 21.8341 18.515 22.5704C23.4212 24.6923 25.7867 19.8921 25.7867 19.8921C25.7867 19.8921 23.8155 20.2218 22.5451 18.7797Z" fill="#0ECD7D"/>
<path d="M28.5409 20.3683C27.2875 18.6157 25.5648 17.1709 23.5208 16.1495C24.7148 15.124 25.5271 13.602 25.7604 11.8026C25.7973 11.517 25.6201 11.2453 25.3327 11.1469C25.0453 11.0486 24.7239 11.1497 24.5572 11.3909C24.2676 11.81 22.8888 11.818 21.781 11.8244C20.5934 11.8313 19.3654 11.8384 18.4175 12.2074C17.805 12.4457 17.2454 12.866 16.7632 13.4421V12.6755C16.7632 12.3342 16.469 12.0575 16.1061 12.0575C15.7432 12.0575 15.449 12.3342 15.449 12.6755V13.4417C15.0257 12.9342 14.4825 12.4751 13.7947 12.2074C12.8468 11.8384 11.6188 11.8313 10.4312 11.8244C9.32332 11.818 7.94461 11.81 7.65501 11.3909C7.48835 11.1498 7.16692 11.0485 6.87946 11.1469C6.59207 11.2453 6.41484 11.517 6.45183 11.8026C6.68518 13.6021 7.49754 15.124 8.69147 16.1495C6.64819 17.1706 4.92603 18.6145 3.6727 20.3664C2.17772 22.4562 1.38745 24.9452 1.38745 27.5644C1.38745 31.2622 2.91854 34.7387 5.69862 37.3537C8.47869 39.9688 12.1749 41.4089 16.1062 41.4089C20.0374 41.4089 23.7335 39.9687 26.5136 37.3537C29.2938 34.7388 30.8248 31.2622 30.8248 27.5644C30.8249 24.9461 30.0351 22.4577 28.5409 20.3683ZM25.8963 19.2842C25.823 19.2725 25.7473 19.2711 25.6716 19.2837C25.6557 19.2864 24.0656 19.537 23.0511 18.3853C22.6126 17.8876 22.2123 17.4856 21.833 17.1602C21.9919 17.099 22.1474 17.0311 22.2992 16.9566C23.6762 17.5621 24.8832 18.3498 25.8963 19.2842ZM8.04647 12.9102C8.74073 13.0507 9.5697 13.0555 10.4233 13.0605C11.4846 13.0666 12.5821 13.073 13.2925 13.3496C14.7119 13.902 15.339 15.8213 15.4492 16.196V17.1247C15.4492 17.466 15.7434 17.7427 16.1063 17.7427C16.4692 17.7427 16.7634 17.466 16.7634 17.1247V16.1959C16.8741 15.8198 17.5016 13.9017 18.9201 13.3496C19.6305 13.073 20.7279 13.0667 21.7892 13.0605C22.6429 13.0555 23.4718 13.0507 24.1661 12.9102C23.5582 14.6939 22.2038 15.9564 20.4897 16.2495C20.4774 16.2517 20.4656 16.2548 20.4536 16.2575C19.6101 15.8804 18.7635 15.813 17.6829 15.813C17.32 15.813 17.0258 16.0897 17.0258 16.431C17.0258 16.7724 17.32 17.0491 17.6829 17.0491C19.4058 17.0491 20.2432 17.135 22.0393 19.174C22.8309 20.0726 23.8381 20.3963 24.626 20.4995C23.7423 21.6332 21.8184 23.3188 18.7897 22.0089C17.5818 21.4865 16.9007 20.6244 16.7654 19.4468C16.7335 19.1693 16.5078 18.9463 16.2147 18.9027L16.2035 18.9011C16.0259 18.8748 15.8443 18.9179 15.7015 19.0208C15.5586 19.1237 15.4668 19.2771 15.4476 19.4454C15.3126 20.6237 14.6315 21.4862 13.423 22.0089C10.3939 23.319 8.47007 21.6328 7.58669 20.4995C8.37451 20.3963 9.38196 20.0724 10.1734 19.174C11.9695 17.135 12.8069 17.0491 14.5298 17.0491C14.8927 17.0491 15.1869 16.7724 15.1869 16.431C15.1869 16.0897 14.8927 15.813 14.5298 15.813C13.4491 15.813 12.6026 15.8804 11.7591 16.2575C11.7471 16.2548 11.7353 16.2517 11.723 16.2495C10.0086 15.9564 8.65435 14.694 8.04647 12.9102ZM10.3795 17.1602C10.0001 17.4856 9.59983 17.8876 9.16138 18.3853C8.1599 19.5221 6.60302 19.2933 6.54079 19.2836C6.46511 19.2709 6.38942 19.2724 6.31613 19.2841C7.3293 18.3497 8.53632 17.5621 9.9134 16.9566C10.0652 17.0312 10.2206 17.099 10.3795 17.1602ZM16.1062 40.1728C8.715 40.1728 2.70174 34.5167 2.70174 27.5644C2.70174 24.5794 3.80086 21.8895 5.77386 19.8177C5.75933 19.9299 5.77714 20.0458 5.82961 20.1521C5.85634 20.2063 6.49877 21.4912 7.80362 22.5038C9.04788 23.4693 11.128 24.362 13.972 23.132C14.9129 22.7251 15.6309 22.1452 16.1062 21.4178C16.5816 22.1452 17.2996 22.7251 18.2405 23.132C19.2311 23.5605 20.1289 23.7314 20.9312 23.7314C22.432 23.7313 23.598 23.133 24.4088 22.5038C25.7137 21.4913 26.3561 20.2063 26.3828 20.1522C26.4352 20.0458 26.453 19.93 26.4386 19.8179C28.4116 21.8898 29.5107 24.5796 29.5107 27.5644C29.5107 34.5166 23.4974 40.1728 16.1062 40.1728Z" fill="#2F2F2F"/>
<path d="M10.0689 34.8068C8.32355 33.4683 7.1317 31.5925 6.71319 29.5247C6.6453 29.1894 6.30122 28.9695 5.94481 29.0332C5.58834 29.097 5.35436 29.4206 5.42224 29.7559C5.89857 32.1089 7.25388 34.2429 9.23858 35.7648C9.36051 35.8583 9.50742 35.9039 9.65338 35.9039C9.84407 35.9039 10.0332 35.8262 10.163 35.6764C10.3923 35.4117 10.3502 35.0224 10.0689 34.8068Z" fill="#2F2F2F"/>
<path d="M5.88706 28.4568C6.24995 28.4568 6.54414 28.1801 6.54414 27.8388V27.8319C6.54414 27.4906 6.24995 27.2139 5.88706 27.2139C5.52417 27.2139 5.22998 27.4906 5.22998 27.8319V27.8388C5.22998 28.1801 5.52417 28.4568 5.88706 28.4568Z" fill="#2F2F2F"/>
</g>
<g clip-path="url(#clip4_59_3150)">
<path d="M41.4278 24.1937C37.9465 27.71 36.6847 32.6943 38.796 37.4833C41.7633 44.2138 49.9707 47.3319 57.1263 44.447C64.2818 41.5621 67.6775 33.766 64.7102 27.0355C62.5995 22.2479 57.9893 19.6323 52.928 19.5591L41.4278 24.1937Z" fill="#D75F5F"/>
<path d="M54.1176 21.7725C52.7875 21.1236 51.875 20.8534 51.0604 20.8401L51.551 20.7215C53.7063 19.383 54.3412 16.7794 53.6146 14.3224C53.3296 15.7787 49.5623 16.2915 48.1078 17.6828C46.6549 19.0725 47.1012 21.7039 47.1022 21.7101C47.0984 21.7051 45.4399 19.5623 43.3851 19.5868C41.3279 19.6113 38.3139 21.8326 37.0246 21.0109C38.3568 23.2238 40.7492 24.6068 43.256 24.0657L43.6874 23.8126C43.1286 24.3796 42.6939 25.1931 42.2511 26.5567C41.6665 28.3574 39.7161 28.786 39.7161 28.786C39.7161 28.786 43.8459 32.3305 47.5047 28.5524C48.7749 27.2409 48.8073 25.9011 48.4766 24.841L48.4876 24.8384C49.0505 25.8044 50.0762 26.7166 51.9439 26.7627C57.3268 26.8953 57.5565 21.5933 57.5565 21.5933C57.5565 21.5933 55.874 22.6294 54.1176 21.7725Z" fill="#0ECD7D"/>
<path d="M60.2878 21.0091C58.4209 19.8597 56.2465 19.1684 53.9482 18.9865C54.6317 17.598 54.762 15.8938 54.2459 14.1491C54.164 13.8722 53.8903 13.6877 53.5855 13.7038C53.2806 13.72 53.0256 13.9326 52.97 14.2168C52.8734 14.7105 51.6061 15.2301 50.5879 15.6476C49.4964 16.0951 48.3678 16.5579 47.6442 17.25C47.1766 17.6972 46.8318 18.2923 46.6214 19.0023L46.31 18.2959C46.1713 17.9814 45.7878 17.8357 45.4534 17.9705C45.1191 18.1054 44.9604 18.4696 45.0991 18.7842L45.4103 19.4902C44.8141 19.1798 44.127 18.9586 43.3845 18.9673C42.3612 18.9796 41.2268 19.4292 40.1296 19.8641C39.1061 20.2697 37.8325 20.7746 37.3954 20.496C37.1439 20.3357 36.8065 20.3618 36.5816 20.5593C36.3568 20.7567 36.3039 21.0729 36.4539 21.3223C37.4 22.8937 38.7668 23.9944 40.2836 24.4958C38.8156 26.1957 37.8153 28.166 37.3721 30.246C36.8435 32.727 37.1264 35.314 38.1904 37.7275C39.6927 41.1349 42.5158 43.7695 46.1399 45.1464C49.7639 46.5232 53.7548 46.477 57.3773 45.0165C60.9998 43.556 63.8205 40.8559 65.32 37.4135C66.8194 33.9711 66.8178 30.1988 65.3156 26.7914C64.252 24.3787 62.5134 22.3792 60.2878 21.0091ZM57.4105 20.9926C57.3382 21.0091 57.2678 21.0358 57.2033 21.0755C57.1896 21.084 55.8262 21.9056 54.4236 21.2213C53.8174 20.9256 53.2852 20.7039 52.8035 20.545C52.925 20.4295 53.0407 20.3092 53.1503 20.1841C54.6652 20.2305 56.0974 20.5079 57.4105 20.9926ZM38.3733 21.7504C39.0701 21.622 39.8359 21.3185 40.6245 21.0059C41.6049 20.6174 42.6188 20.2155 43.3857 20.2064C44.9181 20.1881 46.2757 21.7237 46.5294 22.028L46.9067 22.8838C47.0453 23.1983 47.4288 23.344 47.7632 23.2092C48.0976 23.0744 48.2563 22.7101 48.1176 22.3956L47.7403 21.5398C47.6895 21.152 47.4886 19.1515 48.5713 18.1157C49.1136 17.597 50.1223 17.1835 51.0977 16.7835C51.8822 16.4618 52.6441 16.1494 53.2268 15.7619C53.3912 17.6315 52.6562 19.2979 51.1958 20.2048C51.1853 20.2114 51.1757 20.2186 51.1657 20.2256C50.2353 20.1915 49.4278 20.4438 48.432 20.8453C48.0976 20.9801 47.939 21.3444 48.0776 21.6589C48.2163 21.9735 48.5998 22.1191 48.9342 21.9843C50.5218 21.3443 51.3283 21.1123 53.8117 22.3239C54.9061 22.8579 55.9657 22.782 56.7337 22.5844C56.38 23.9573 55.2919 26.2252 51.969 26.1434C50.6437 26.1107 49.6659 25.5694 49.0628 24.5346C48.9207 24.2907 48.6221 24.1691 48.3344 24.2378L48.3234 24.2404C48.149 24.2822 47.9992 24.3894 47.9094 24.5373C47.8196 24.6852 47.7973 24.8606 47.8479 25.0228C48.2023 26.1588 47.925 27.2065 47.0238 28.1371C44.7648 30.4697 42.3071 29.6306 41.0327 28.9145C41.7167 28.5267 42.5135 27.854 42.8777 26.7322C43.7045 24.186 44.4412 23.7958 46.0288 23.1557C46.3632 23.0209 46.5219 22.6566 46.3832 22.3421C46.2445 22.0275 45.861 21.8819 45.5266 22.0167C44.5308 22.4182 43.7782 22.7948 43.1542 23.4556C43.142 23.4576 43.1298 23.4591 43.1176 23.4617C41.4188 23.8285 39.6581 23.1684 38.3733 21.7504ZM42.2496 24.8C42.0322 25.2407 41.8267 25.7599 41.6249 26.3814C41.1639 27.801 39.6363 28.1685 39.575 28.1827C39.5001 28.1991 39.431 28.2285 39.3682 28.2666C39.9222 27.0292 40.7145 25.855 41.7374 24.7855C41.9075 24.7979 42.0783 24.8026 42.2496 24.8ZM56.8752 43.8775C50.0645 46.6234 42.2259 43.6455 39.4015 37.2393C38.1889 34.4887 38.1089 31.6018 39.0853 28.9597C39.1175 29.0685 39.181 29.1686 39.2725 29.2471C39.3192 29.2872 40.4331 30.2325 42.0468 30.6808C43.5856 31.1082 45.865 31.158 47.9859 28.968C48.6876 28.2435 49.1137 27.4425 49.2561 26.5956C49.9897 27.0893 50.8869 27.3569 51.9191 27.3823C53.006 27.4091 53.9027 27.233 54.642 26.935C56.0249 26.3774 56.8563 25.3929 57.3478 24.5119C58.1388 23.0942 58.2088 21.6714 58.2114 21.6116C58.2165 21.4941 58.1859 21.3808 58.127 21.2828C60.7867 22.459 62.8922 24.5293 64.1048 27.2796C66.9291 33.6858 63.6859 41.1317 56.8752 43.8775Z" fill="#2F2F2F"/>
<path d="M49.1323 41.1758C46.9802 40.5908 45.1199 39.3051 43.8943 37.5553C43.6955 37.2715 43.2891 37.1967 42.9866 37.3878C42.684 37.5791 42.5999 37.9642 42.7987 38.2479C44.1934 40.2391 46.3092 41.702 48.7563 42.3671C48.9067 42.4079 49.0605 42.3953 49.195 42.3411C49.3707 42.2703 49.5134 42.1284 49.5722 41.9421C49.676 41.6131 49.479 41.27 49.1323 41.1758Z" fill="#2F2F2F"/>
<path d="M42.6992 36.8783C43.0336 36.7435 43.1923 36.3792 43.0536 36.0647L43.0508 36.0583C42.9121 35.7438 42.5286 35.5981 42.1942 35.7329C41.8599 35.8678 41.7012 36.232 41.8399 36.5466L41.8426 36.5529C41.9813 36.8674 42.3648 37.0131 42.6992 36.8783Z" fill="#2F2F2F"/>
</g>
<defs>
<clipPath id="clip0_59_3150">
<rect width="32.2123" height="30.2993" fill="white" transform="translate(15.5781)"/>
</clipPath>
<clipPath id="clip1_59_3150">
<rect width="32.1242" height="30.3897" fill="white" transform="matrix(0.970171 0.242421 -0.263578 0.964638 55.8005 3.28247)"/>
</clipPath>
<clipPath id="clip2_59_3150">
<rect width="31.2352" height="31.2734" fill="white" transform="matrix(0.566078 0.824352 -0.846865 0.531809 91.3184 8.47095)"/>
</clipPath>
<clipPath id="clip3_59_3150">
<rect width="32.2123" height="30.2993" fill="white" transform="translate(0 11.1096)"/>
</clipPath>
<clipPath id="clip4_59_3150">
<rect width="32.0038" height="30.5123" fill="white" transform="matrix(0.927459 -0.373924 0.403406 0.915021 30.2273 23.0806)"/>
</clipPath>
</defs>
</svg>
