<svg  height="40px" viewBox="0 0 109 51" fill="none" xmlns="http://www.w3.org/2000/svg">
<g clip-path="url(#clip0_59_2594)">
<path d="M92.2017 19.2064C87.955 16.5689 82.6006 16.2847 78.0578 19.1375C71.6733 23.1468 69.9526 31.4303 74.2151 37.6376C78.4777 43.8449 87.1102 45.6269 93.4948 41.6176C98.0362 38.7657 99.8915 33.9562 99.0503 29.1829L92.2017 19.2064Z" fill="#D75F5F"/>
<path d="M96.9892 30.7025C97.4158 29.3341 97.5285 28.427 97.3947 27.6585L97.6055 28.0984C99.3722 29.8831 102.165 30.0087 104.56 28.8805C103.011 28.8762 101.801 25.426 100.107 24.3099C98.4148 23.1951 95.7894 24.0913 95.7832 24.0934C95.7876 24.0889 97.691 22.1412 97.2938 20.213C96.8961 18.2827 94.066 15.8503 94.6776 14.489C92.643 16.1425 91.6538 18.643 92.6642 20.9026L93.0026 21.2625C92.3183 20.8397 91.403 20.5782 89.9205 20.4086C87.9627 20.1848 87.1688 18.4281 87.1688 18.4281C87.1688 18.4281 84.2713 22.9539 88.8193 25.7109C90.398 26.6679 91.7818 26.4559 92.8121 25.9529L92.8168 25.9628C91.9253 26.6671 91.1729 27.7969 91.4637 29.5618C92.3019 34.6483 97.7962 33.9043 97.7962 33.9043C97.7962 33.9043 96.426 32.5096 96.9892 30.7025Z" fill="#0ECD7D"/>
<path d="M98.8917 36.3671C99.7358 34.4032 100.053 32.2331 99.8239 30.0386C101.376 30.43 103.152 30.244 104.853 29.4427C105.123 29.3155 105.263 29.0247 105.191 28.741C105.119 28.4572 104.854 28.2559 104.552 28.255C104.027 28.2535 103.263 27.1558 102.649 26.2738C101.991 25.3282 101.311 24.3506 100.468 23.7954C99.9238 23.4366 99.2493 23.22 98.481 23.1508L99.1511 22.73C99.4495 22.5426 99.5298 22.1556 99.3307 21.8655C99.1315 21.5754 98.7281 21.4922 98.4297 21.6795L97.76 22.1001C97.9713 21.4832 98.0744 20.7969 97.9309 20.1002C97.733 19.14 97.0652 18.1545 96.4194 17.2014C95.8169 16.3123 95.067 15.2059 95.2744 14.7443C95.3937 14.4788 95.3058 14.1662 95.062 13.9905C94.8182 13.8147 94.4834 13.8222 94.2542 14.0085C92.8093 15.1828 91.9249 16.6676 91.6839 18.1848C89.6698 17.112 87.4624 16.528 85.2431 16.4878C82.5958 16.4399 79.9864 17.1744 77.697 18.6121C74.4648 20.6418 72.2664 23.774 71.5066 27.4316C70.7469 31.0893 71.5169 34.8343 73.6748 37.9768C75.8328 41.1192 79.1204 43.2831 82.9321 44.07C86.7439 44.857 90.6232 44.1724 93.8554 42.1427C96.144 40.7055 97.8856 38.7084 98.8917 36.3671ZM98.3877 33.6581C98.3577 33.593 98.3174 33.5317 98.2649 33.4782C98.2537 33.4669 97.1618 32.3334 97.6116 30.8904C97.8061 30.2667 97.9377 29.726 98.0139 29.2442C98.1546 29.3377 98.2993 29.4246 98.4478 29.5051C98.6744 30.9382 98.6484 32.3353 98.3877 33.6581ZM94.1613 15.8911C94.4196 16.5232 94.8704 17.1885 95.3346 17.8736C95.9118 18.7253 96.5086 19.606 96.6568 20.3257C96.9531 21.7635 95.6197 23.3183 95.3526 23.6121L94.5409 24.1218C94.2425 24.3092 94.1621 24.6963 94.3613 24.9863C94.5605 25.2764 94.9639 25.3597 95.2622 25.1723L96.074 24.6625C96.4636 24.5446 98.4846 23.9933 99.7459 24.8241C100.378 25.2402 100.985 26.1139 101.573 26.9589C102.046 27.6385 102.506 28.2985 103.01 28.7763C101.117 29.2694 99.2698 28.8799 98.0726 27.6706C98.064 27.6619 98.0547 27.6542 98.0458 27.6461C97.9124 26.7649 97.5067 26.0512 96.9135 25.1873C96.7143 24.8972 96.3109 24.814 96.0126 25.0013C95.7142 25.1887 95.6338 25.5758 95.833 25.8658C96.7787 27.243 97.1633 27.9596 96.3669 30.5145C96.0159 31.6405 96.2858 32.6233 96.6281 33.3098C95.1521 33.2257 92.6227 32.613 92.1053 29.4731C91.8989 28.2208 92.2785 27.2031 93.2336 26.4486C93.4586 26.2708 93.5297 25.9679 93.4069 25.7097L93.4022 25.6999C93.3276 25.5435 93.1903 25.422 93.022 25.3643C92.8536 25.3066 92.6691 25.3174 92.5114 25.3944C91.4074 25.9333 90.2796 25.8623 89.1594 25.1832C86.3515 23.481 86.7695 21.0177 87.2751 19.6895C87.7978 20.2625 88.6339 20.8901 89.8536 21.0295C92.6218 21.3461 93.1566 21.9683 94.1023 23.3455C94.3015 23.6355 94.7048 23.7188 95.0032 23.5315C95.3016 23.3441 95.382 22.957 95.1828 22.667C94.5895 21.8031 94.0659 21.1634 93.2733 20.6962C93.2691 20.6851 93.2654 20.674 93.2605 20.6629C92.5756 19.1317 92.9357 17.3562 94.1613 15.8911ZM91.727 20.0889C91.2343 19.9642 90.6632 19.865 89.9875 19.7877C88.4441 19.6112 87.7896 18.2411 87.7639 18.186C87.7334 18.1186 87.6906 18.0588 87.6401 18.0067C89.013 18.3037 90.364 18.8362 91.6491 19.6046C91.6672 19.7668 91.6933 19.9283 91.727 20.0889ZM74.7553 37.2983C70.6982 31.3902 72.3414 23.4789 78.4184 19.6627C81.0276 18.0242 83.9821 17.4263 86.8761 17.8661C86.77 17.9161 86.6785 17.9939 86.6144 18.0943C86.5817 18.1454 85.8111 19.3642 85.6423 20.963C85.4813 22.4876 85.8428 24.6403 88.4791 26.2385C89.3512 26.7672 90.2522 27.0229 91.1489 27.0036C90.774 27.7829 90.6613 28.6751 90.8221 29.6505C90.9913 30.6776 91.3347 31.489 91.7751 32.1303C92.599 33.33 93.7619 33.9336 94.757 34.2364C96.3583 34.7236 97.8341 34.5318 97.8961 34.5234C98.0178 34.5069 98.1288 34.4576 98.2189 34.3845C97.4909 37.0989 95.743 39.4539 93.134 41.0923C87.0572 44.9084 78.8124 43.2065 74.7553 37.2983Z" fill="#2F2F2F"/>
<path d="M76.1317 29.5271C76.3436 27.3972 77.3291 25.4148 78.9068 23.9453C79.1626 23.707 79.1659 23.3112 78.9146 23.0613C78.6631 22.8114 78.2519 22.802 77.996 23.0403C76.2008 24.7126 75.0794 26.9673 74.8385 29.3892C74.8237 29.538 74.8645 29.6804 74.9447 29.7971C75.0493 29.9495 75.2211 30.058 75.4233 30.0795C75.7805 30.1176 76.0976 29.8702 76.1317 29.5271Z" fill="#2F2F2F"/>
<path d="M79.3867 22.6987C79.5859 22.9888 79.9893 23.0721 80.2877 22.8847L80.2937 22.8809C80.592 22.6936 80.6724 22.3065 80.4732 22.0164C80.274 21.7264 79.8707 21.6431 79.5723 21.8305L79.5663 21.8342C79.2679 22.0216 79.1876 22.4087 79.3867 22.6987Z" fill="#2F2F2F"/>
</g>
<defs>
<clipPath id="clip0_59_2594">
<rect width="31.2352" height="31.2734" fill="white" transform="matrix(0.566078 0.824352 -0.846865 0.531809 91.3184 8.47095)"/>
</clipPath>
</defs>
</svg>
