<svg viewBox="0 0 200 200" fill="none" xmlns="http://www.w3.org/2000/svg">
<path d="M61.2719 34.2367C32.4856 47.0871 12.6949 74.309 12.6949 108.615C12.6949 156.828 51.786 195.92 100 195.92C148.215 195.92 187.306 156.828 187.306 108.615C187.306 74.3195 167.527 47.1047 138.756 34.2484L61.2719 34.2367Z" fill="#AEE3C7"/>
<path d="M139.978 50.6289C134.005 43.4203 129.467 39.539 124.84 37.4605L127.946 37.9422C143.652 35.0863 153.852 20.8074 155.892 4.08083C150.588 12.2402 127.742 6.12068 115.911 11.0164C104.093 15.9062 100.01 33.0058 100 33.0457C99.9906 33.0062 95.907 15.9062 84.0891 11.016C72.2578 6.12029 49.4117 12.2398 44.1082 4.08044C46.148 20.807 56.3472 35.0859 72.0539 37.9418L75.1601 37.4601C70.5332 39.5386 65.9945 43.4207 60.0219 50.6285C52.1348 60.1476 39.8957 57.9718 39.8957 57.9718C39.8957 57.9718 54.5824 89.6578 85.0445 75.6504C95.6191 70.7879 99.1844 62.7183 99.966 55.4597L100.036 55.4707C100.82 62.7265 104.387 70.7902 114.956 75.6504C145.418 89.657 160.105 57.9718 160.105 57.9718C160.105 57.9718 147.866 60.148 139.978 50.6289Z" fill="#6FDEA9"/>
<path d="M177.205 61.1152C169.423 49.5461 158.727 40.0093 146.036 33.2672C153.449 26.498 158.493 16.4519 159.941 4.5742C160.171 2.68943 159.07 0.89568 157.286 0.246461C155.501 -0.402758 153.506 0.26482 152.471 1.85701C150.673 4.62302 142.112 4.67615 135.234 4.71834C127.86 4.76365 120.236 4.81091 114.35 7.24607C110.548 8.81951 107.073 11.5937 104.079 15.3965V10.3363C104.079 8.08318 102.253 6.25662 99.9996 6.25662C97.7465 6.25662 95.9199 8.08318 95.9199 10.3363V15.3937C93.2918 12.0437 89.9187 9.01326 85.6488 7.24607C79.7633 4.81091 72.1391 4.76404 64.7652 4.71834C57.8867 4.67576 49.3265 4.62341 47.5285 1.85701C46.4937 0.265602 44.498 -0.403148 42.7133 0.246461C40.9289 0.89568 39.8285 2.68943 40.0582 4.5742C41.507 16.4523 46.5508 26.4984 53.9637 33.2676C41.2773 40.0074 30.5848 49.5387 22.8031 61.1027C13.5211 74.8969 8.61444 91.3261 8.61444 108.615C8.61444 133.023 18.1207 155.971 35.3816 173.233C52.6426 190.494 75.5914 200 100 200C124.409 200 147.357 190.494 164.618 173.233C181.879 155.972 191.385 133.023 191.385 108.615C191.386 91.332 186.482 74.9066 177.205 61.1152ZM160.785 53.959C160.33 53.882 159.86 53.8722 159.39 53.9555C159.291 53.9734 149.418 55.6277 143.12 48.0258C140.397 44.7402 137.912 42.0867 135.557 39.939C136.543 39.5351 137.509 39.0867 138.451 38.5949C147.001 42.5918 154.495 47.791 160.785 53.959ZM49.959 11.8851C54.2695 12.8129 59.4164 12.8445 64.7164 12.8773C71.3055 12.9179 78.1195 12.9601 82.5305 14.7855C91.3434 18.432 95.2371 31.1008 95.9211 33.5742V39.7043C95.9211 41.9574 97.7477 43.784 100.001 43.784C102.254 43.784 104.08 41.9574 104.08 39.7043V33.5738C104.768 31.091 108.664 18.4301 117.471 14.7855C121.882 12.9601 128.696 12.9183 135.285 12.8773C140.585 12.8445 145.732 12.8129 150.043 11.8851C146.268 23.6594 137.859 31.9926 127.217 33.9277C127.14 33.9418 127.067 33.9625 126.992 33.9804C121.755 31.4914 116.499 31.0461 109.789 31.0461C107.536 31.0461 105.71 32.8726 105.71 35.1258C105.71 37.3789 107.536 39.2054 109.789 39.2054C120.487 39.2054 125.686 39.7726 136.838 53.2316C141.752 59.1633 148.006 61.3 152.898 61.9812C147.411 69.4644 135.466 80.5906 116.662 71.9441C109.162 68.4957 104.933 62.8054 104.093 55.0324C103.895 53.2008 102.494 51.7285 100.674 51.441L100.604 51.4301C99.5015 51.2566 98.3742 51.5414 97.4875 52.2203C96.6004 52.8996 96.0305 53.9121 95.9109 55.023C95.073 62.8011 90.8441 68.4941 83.341 71.9441C64.5336 80.5922 52.5891 69.4617 47.1043 61.9812C51.9957 61.2996 58.2508 59.1621 63.1644 53.2316C74.3164 39.7726 79.5156 39.2054 90.2129 39.2054C92.466 39.2054 94.2926 37.3789 94.2926 35.1258C94.2926 32.8726 92.466 31.0461 90.2129 31.0461C83.5027 31.0461 78.2469 31.4914 73.0101 33.9804C72.9355 33.9625 72.8621 33.9418 72.7855 33.9277C62.1414 31.9929 53.7332 23.6601 49.959 11.8851ZM64.4441 39.939C62.0887 42.0867 59.6035 44.7406 56.8812 48.0258C50.6633 55.5297 40.9969 54.0191 40.6105 53.9551C40.1406 53.8715 39.6707 53.8808 39.2156 53.9582C45.5062 47.7906 53.0004 42.5918 61.5504 38.5949C62.4926 39.0875 63.4578 39.5347 64.4441 39.939ZM100 191.841C54.1098 191.841 16.7746 154.506 16.7746 108.615C16.7746 88.9117 23.5988 71.1562 35.8488 57.4804C35.7586 58.2215 35.8691 58.9859 36.1949 59.6879C36.3609 60.0457 40.3496 68.5273 48.4512 75.2109C56.1766 81.5844 69.0914 87.4765 86.7492 79.3574C92.591 76.6715 97.0492 72.8441 100 68.0426C102.952 72.8441 107.41 76.6719 113.252 79.3574C119.402 82.1859 124.977 83.314 129.958 83.314C139.276 83.3137 146.515 79.3644 151.55 75.2113C159.651 68.5277 163.64 60.0457 163.806 59.6883C164.131 58.9863 164.242 58.2219 164.152 57.4816C176.402 71.1578 183.226 88.9133 183.226 108.615C183.226 154.505 145.891 191.841 100 191.841Z" fill="#2F2F2F"/>
<path d="M62.516 156.422C51.6793 147.586 44.2793 135.204 41.6809 121.555C41.2594 119.342 39.1231 117.891 36.9102 118.311C34.6969 118.732 33.2442 120.868 33.6657 123.082C36.6231 138.613 45.0379 152.699 57.3606 162.745C58.1176 163.363 59.0297 163.663 59.936 163.663C61.12 163.663 62.2942 163.15 63.1 162.161C64.5239 160.414 64.2621 157.845 62.516 156.422Z" fill="#2F2F2F"/>
<path d="M36.5516 114.506C38.8047 114.506 40.6312 112.68 40.6312 110.427V110.381C40.6312 108.128 38.8047 106.302 36.5516 106.302C34.2984 106.302 32.4719 108.128 32.4719 110.381V110.427C32.4719 112.68 34.2984 114.506 36.5516 114.506Z" fill="#2F2F2F"/>
</svg>
