<svg  height="40px" viewBox="0 0 109 51" fill="none" xmlns="http://www.w3.org/2000/svg">
<g clip-path="url(#clip0_59_3114)">
<path d="M25.4466 5.18677C20.8103 7.13356 17.6228 11.2576 17.6228 16.4548C17.6228 23.759 23.9188 29.6813 31.6843 29.6813C39.4498 29.6813 45.7459 23.759 45.7459 16.4548C45.7459 11.2592 42.5603 7.13622 37.9263 5.18854L25.4466 5.18677Z" fill="#D75F5F"/>
<path d="M38.1232 7.67008C37.1612 6.57801 36.4302 5.99001 35.685 5.67513L36.1852 5.74809C38.715 5.31544 40.3577 3.15224 40.6863 0.618223C39.8321 1.85434 36.1524 0.927252 34.2469 1.66893C32.3435 2.40973 31.6858 5.00026 31.6843 5.00629C31.6828 5.00032 31.025 2.40973 29.1216 1.66887C27.2161 0.927193 23.5364 1.85428 22.6822 0.618164C23.0108 3.15218 24.6535 5.31538 27.1832 5.74803L27.6835 5.67507C26.9383 5.98995 26.2073 6.57807 25.2453 7.67002C23.975 9.11214 22.0038 8.78252 22.0038 8.78252C22.0038 8.78252 24.3692 13.5828 29.2755 11.4607C30.9787 10.7241 31.5529 9.50159 31.6788 8.40194L31.69 8.4036C31.8163 9.50284 32.3908 10.7245 34.0931 11.4607C38.9993 13.5827 41.3648 8.78252 41.3648 8.78252C41.3648 8.78252 39.3936 9.1122 38.1232 7.67008Z" fill="#0ECD7D"/>
<path d="M44.119 9.25872C42.8656 7.50603 41.1429 6.06125 39.0989 5.03984C40.2929 4.01434 41.1052 2.49239 41.3384 0.692956C41.3754 0.40742 41.1982 0.135674 40.9108 0.0373195C40.6234 -0.0610348 40.302 0.0401008 40.1353 0.281312C39.8457 0.700353 38.4669 0.708401 37.3591 0.714792C36.1715 0.721657 34.9435 0.728818 33.9955 1.09774C33.3831 1.33611 32.8235 1.75639 32.3413 2.33249V1.56589C32.3413 1.22455 32.0471 0.947837 31.6842 0.947837C31.3213 0.947837 31.0271 1.22455 31.0271 1.56589V2.33208C30.6038 1.82456 30.0605 1.36546 29.3728 1.09774C28.4249 0.728818 27.1969 0.721716 26.0093 0.714792C24.9014 0.708342 23.5227 0.700412 23.2331 0.281312C23.0664 0.0402192 22.745 -0.061094 22.4576 0.0373195C22.1702 0.135674 21.9929 0.40742 22.0299 0.692956C22.2633 2.49245 23.0756 4.0144 24.2696 5.0399C22.2263 6.06096 20.5041 7.50491 19.2508 9.25682C17.7558 11.3466 16.9655 13.8356 16.9655 16.4547C16.9655 20.1525 18.4966 23.6291 21.2767 26.2441C24.0568 28.8592 27.753 30.2993 31.6843 30.2993C35.6155 30.2993 39.3116 28.8591 42.0917 26.2441C44.8719 23.6292 46.4029 20.1525 46.4029 16.4547C46.403 13.8365 45.6132 11.3481 44.119 9.25872ZM41.4744 8.17457C41.401 8.16291 41.3254 8.16143 41.2497 8.17404C41.2338 8.17676 39.6437 8.42738 38.6292 7.27571C38.1907 6.77796 37.7904 6.37596 37.4111 6.0506C37.57 5.98941 37.7254 5.92147 37.8773 5.84697C39.2543 6.45248 40.4613 7.24014 41.4744 8.17457ZM23.6246 1.80054C24.3188 1.94108 25.1478 1.94588 26.0014 1.95085C27.0627 1.957 28.1601 1.96339 28.8706 2.23994C30.29 2.79236 30.9171 4.71163 31.0273 5.08635V6.01504C31.0273 6.35638 31.3215 6.63309 31.6844 6.63309C32.0473 6.63309 32.3415 6.35638 32.3415 6.01504V5.08629C32.4522 4.71015 33.0797 2.79207 34.4982 2.23994C35.2086 1.96339 36.306 1.95706 37.3673 1.95085C38.221 1.94588 39.0499 1.94108 39.7442 1.80054C39.1362 3.58429 37.7819 4.84674 36.0678 5.13991C36.0555 5.14204 36.0437 5.14517 36.0317 5.1479C35.1882 4.77081 34.3416 4.70335 33.261 4.70335C32.8981 4.70335 32.6039 4.98007 32.6039 5.32141C32.6039 5.66275 32.8981 5.93947 33.261 5.93947C34.9839 5.93947 35.8213 6.02539 37.6174 8.06438C38.409 8.963 39.4162 9.28671 40.2041 9.38991C39.3204 10.5236 37.3965 12.2092 34.3678 10.8993C33.1599 10.3768 32.4788 9.51478 32.3435 8.33719C32.3116 8.0597 32.0859 7.83666 31.7928 7.79311L31.7816 7.79145C31.604 7.76517 31.4224 7.80832 31.2796 7.91117C31.1367 8.01408 31.0449 8.16747 31.0257 8.33577C30.8907 9.51413 30.2096 10.3766 29.0011 10.8993C25.972 12.2094 24.0482 10.5232 23.1648 9.38991C23.9526 9.28665 24.9601 8.96282 25.7515 8.06438C27.5476 6.02539 28.385 5.93947 30.1079 5.93947C30.4708 5.93947 30.765 5.66275 30.765 5.32141C30.765 4.98007 30.4708 4.70335 30.1079 4.70335C29.0272 4.70335 28.1807 4.77081 27.3372 5.1479C27.3252 5.14517 27.3134 5.14204 27.301 5.13991C25.5867 4.8468 24.2324 3.58441 23.6246 1.80054ZM25.9576 6.0506C25.5782 6.37596 25.1779 6.77802 24.7395 7.27571C23.738 8.41253 22.1811 8.18368 22.1189 8.17398C22.0432 8.16131 21.9675 8.16273 21.8942 8.17445C22.9074 7.24009 24.1144 6.45248 25.4915 5.84697C25.6432 5.92159 25.7987 5.98935 25.9576 6.0506ZM31.6843 29.0632C24.2931 29.0632 18.2798 23.4071 18.2798 16.4548C18.2798 13.4698 19.379 10.7799 21.352 8.70806C21.3374 8.82032 21.3552 8.93614 21.4077 9.04248C21.4344 9.09669 22.0769 10.3816 23.3817 11.3942C24.626 12.3597 26.7061 13.2524 29.5501 12.0223C30.4909 11.6154 31.209 11.0356 31.6843 10.3082C32.1597 11.0356 32.8777 11.6155 33.8186 12.0223C34.8092 12.4509 35.707 12.6218 36.5093 12.6218C38.0101 12.6217 39.1761 12.0234 39.9869 11.3942C41.2918 10.3817 41.9342 9.09669 41.9609 9.04254C42.0133 8.93619 42.0311 8.82038 42.0167 8.70824C43.9897 10.7801 45.0888 13.47 45.0888 16.4548C45.0888 23.407 39.0755 29.0632 31.6843 29.0632Z" fill="#2F2F2F"/>
<path d="M25.647 23.6973C23.9016 22.3588 22.7098 20.483 22.2913 18.4152C22.2234 18.0799 21.8793 17.86 21.5229 17.9237C21.1664 17.9875 20.9325 18.3111 21.0003 18.6464C21.4767 20.9994 22.832 23.1334 24.8167 24.6553C24.9386 24.7488 25.0855 24.7944 25.2315 24.7944C25.4222 24.7944 25.6113 24.7167 25.7411 24.5669C25.9704 24.3022 25.9283 23.913 25.647 23.6973Z" fill="#2F2F2F"/>
<path d="M21.4652 17.3472C21.828 17.3472 22.1222 17.0705 22.1222 16.7292V16.7223C22.1222 16.381 21.828 16.1042 21.4652 16.1042C21.1023 16.1042 20.8081 16.381 20.8081 16.7223V16.7292C20.8081 17.0705 21.1023 17.3472 21.4652 17.3472Z" fill="#2F2F2F"/>
</g>
<g clip-path="url(#clip1_59_3114)">
<path d="M63.9773 10.6865C58.9768 11.4492 54.8026 14.6686 53.4287 19.697C51.4977 26.764 56.0236 34.016 63.5368 35.8933C71.0501 37.7707 78.7073 33.563 80.6382 26.496C82.0118 21.4692 80.0197 16.71 76.0511 13.7053L63.9773 10.6865Z" fill="#D75F5F"/>
<path d="M75.5855 16.1539C74.9435 14.8648 74.3917 14.1191 73.7539 13.6343L74.2186 13.8259C76.7806 14.0188 78.9418 12.323 79.9296 9.95079C78.7764 10.9402 75.4613 9.15367 73.4217 9.41059C71.3843 9.66717 70.0631 12.0145 70.06 12.02C70.0601 12.0139 70.1086 9.34841 68.4629 8.17146C66.8153 6.99319 63.0101 7.00058 62.5104 5.59811C62.1584 8.12924 63.1759 10.6193 65.5091 11.6495L66.0124 11.6998C65.2081 11.8243 64.3454 12.2166 63.126 13.0405C61.5157 14.1287 59.6956 13.3332 59.6956 13.3332C59.6956 13.3332 60.7152 18.5495 66.0231 17.6825C67.8657 17.3815 68.7445 16.3375 69.157 15.304L69.1674 15.3083C68.999 16.4024 69.2319 17.7232 70.6842 18.8471C74.8701 22.0863 78.4278 18.0139 78.4278 18.0139C78.4278 18.0139 76.4334 17.8563 75.5855 16.1539Z" fill="#0ECD7D"/>
<path d="M80.9666 19.1404C80.2173 17.1417 78.9325 15.3274 77.2249 13.845C78.6512 13.1414 79.8395 11.8653 80.5408 10.1807C80.6521 9.91339 80.5525 9.60762 80.3004 9.44299C80.0483 9.27833 79.7106 9.29849 79.4856 9.49156C79.0946 9.82697 77.7585 9.50143 76.685 9.23979C75.5341 8.95931 74.3441 8.66937 73.3295 8.79713C72.6739 8.87969 72.0214 9.15104 71.4025 9.59184L71.6051 8.85015C71.6954 8.5199 71.4839 8.18105 71.1328 8.09332C70.7817 8.00558 70.4239 8.20219 70.3337 8.53244L70.1311 9.27373C69.8558 8.68037 69.4515 8.10484 68.8569 7.67955C68.0373 7.09345 66.8511 6.78971 65.7039 6.49589C64.6337 6.22181 63.3018 5.88082 63.1325 5.40533C63.0349 5.13177 62.7507 4.95604 62.4466 4.98176C62.1425 5.00744 61.8992 5.22752 61.8595 5.51272C61.6096 7.31017 61.9932 8.97908 62.8772 10.2599C60.6304 10.7538 58.5824 11.7345 56.9067 13.1265C54.9078 14.787 53.4852 17.0041 52.7928 19.5381C51.8152 23.1158 52.3775 26.8496 54.376 30.0518C56.3744 33.254 59.5698 35.5409 63.3734 36.4913C67.177 37.4417 71.1337 36.9419 74.5148 35.084C77.896 33.2261 80.2963 30.2326 81.2739 26.6549C81.9662 24.1216 81.8599 21.5232 80.9666 19.1404ZM78.6945 17.4522C78.6266 17.4231 78.5538 17.4034 78.4773 17.3973C78.4611 17.3961 76.8564 17.2542 76.1793 15.8946C75.8867 15.3071 75.6056 14.8213 75.3247 14.4148C75.4946 14.3941 75.663 14.3659 75.8295 14.3305C77.0018 15.2493 77.9613 16.3032 78.6945 17.4522ZM63.1096 6.96984C63.7441 7.27366 64.5449 7.47871 65.3695 7.68989C66.3946 7.95241 67.4548 8.22392 68.069 8.66323C69.2963 9.54087 69.3957 11.5494 69.4032 11.9386L69.1577 12.8371C69.0674 13.1674 69.2789 13.5062 69.63 13.5939C69.9811 13.6817 70.3389 13.4851 70.4291 13.1548L70.6747 12.2562C70.8812 11.9191 71.9954 10.215 73.5138 10.0237C74.2743 9.92794 75.3377 10.1871 76.3662 10.4377C77.1934 10.6393 77.9967 10.835 78.7056 10.8669C77.6458 12.4457 76.0018 13.3397 74.2658 13.209C74.2533 13.2081 74.2411 13.2082 74.2287 13.208C73.5124 12.6392 72.7111 12.3693 71.6655 12.108C71.3144 12.0203 70.9566 12.2169 70.8664 12.5472C70.7762 12.8774 70.9876 13.2163 71.3387 13.304C73.0057 13.7205 73.7932 14.0061 74.9919 16.4131C75.5202 17.4739 76.4091 18.0306 77.1442 18.3209C75.9895 19.2041 73.6824 20.3698 71.0985 18.3703C70.0679 17.5728 69.6368 16.5741 69.8172 15.402C69.8597 15.1258 69.7003 14.8555 69.4282 14.7425L69.4178 14.7382C69.2529 14.6698 69.0659 14.6677 68.9005 14.7326C68.735 14.7977 68.6057 14.9239 68.5426 15.0821C68.1005 16.1895 67.2135 16.8593 65.9061 17.0728C62.629 17.6081 61.2135 15.5115 60.6584 14.2015C61.4479 14.2921 62.5082 14.2223 63.5114 13.5444C65.7883 12.0059 66.6212 12.1252 68.2881 12.5417C68.6392 12.6295 68.997 12.4328 69.0873 12.1026C69.1775 11.7723 68.966 11.4335 68.6149 11.3458C67.5693 11.0845 66.7324 10.9451 65.8167 11.106C65.8058 11.1005 65.7952 11.0946 65.7838 11.0896C64.2026 10.3915 63.2261 8.84272 63.1096 6.96984ZM64.2432 11.6459C63.7901 11.8689 63.2966 12.1612 62.7408 12.5367C61.4713 13.3945 60.0255 12.7967 59.9679 12.7722C59.898 12.7417 59.8244 12.7248 59.7504 12.7184C60.9777 12.0593 62.3537 11.5891 63.8461 11.3362C63.9732 11.4451 64.1057 11.5482 64.2432 11.6459ZM63.7002 35.2954C56.5491 33.5085 52.2264 26.5824 54.0644 19.8559C54.8535 16.9679 56.628 14.6311 59.0847 13.1036C59.0409 13.2087 59.0275 13.325 59.0502 13.4406C59.0617 13.4995 59.3436 14.898 60.3384 16.1931C61.287 17.4281 63.0635 18.7946 66.1403 18.2921C67.1582 18.1259 68.0062 17.7385 68.6584 17.1496C68.926 17.9684 69.4674 18.703 70.2701 19.3241C71.1153 19.9782 71.9388 20.3606 72.715 20.5545C74.1671 20.9173 75.4533 20.6203 76.4042 20.2076C77.9343 19.5434 78.8956 18.4555 78.9358 18.4096C79.0146 18.3193 79.0624 18.2116 79.0781 18.0996C80.4393 20.5812 80.7916 23.4494 80.0025 26.3372C78.1646 33.0636 70.8513 37.0823 63.7002 35.2954Z" fill="#2F2F2F"/>
<path d="M59.2776 28.6443C57.9428 26.9273 57.2855 24.8243 57.4273 22.7225C57.4502 22.3817 57.1755 22.0857 56.8138 22.0612C56.452 22.0368 56.1401 22.2933 56.1171 22.6341C55.956 25.0258 56.7031 27.4181 58.221 29.3704C58.3142 29.4904 58.4443 29.57 58.5855 29.6053C58.77 29.6514 58.9735 29.6219 59.1387 29.5083C59.4306 29.3077 59.4927 28.9209 59.2776 28.6443Z" fill="#2F2F2F"/>
<path d="M56.9103 21.4895C57.2614 21.5772 57.6192 21.3806 57.7094 21.0504L57.7112 21.0437C57.8015 20.7135 57.59 20.3746 57.2389 20.2869C56.8878 20.1992 56.53 20.3958 56.4398 20.726L56.4379 20.7327C56.3477 21.0629 56.5592 21.4018 56.9103 21.4895Z" fill="#2F2F2F"/>
</g>
<g clip-path="url(#clip2_59_3114)">
<path d="M92.2017 19.2064C87.955 16.5689 82.6006 16.2847 78.0578 19.1375C71.6733 23.1468 69.9526 31.4303 74.2151 37.6376C78.4777 43.8449 87.1102 45.6269 93.4948 41.6176C98.0362 38.7657 99.8915 33.9562 99.0503 29.1829L92.2017 19.2064Z" fill="#D75F5F"/>
<path d="M96.9892 30.7025C97.4158 29.3341 97.5285 28.427 97.3947 27.6585L97.6055 28.0984C99.3722 29.8831 102.165 30.0087 104.56 28.8805C103.011 28.8762 101.801 25.426 100.107 24.3099C98.4148 23.1951 95.7894 24.0913 95.7832 24.0934C95.7876 24.0889 97.691 22.1412 97.2938 20.213C96.8961 18.2827 94.066 15.8503 94.6776 14.489C92.643 16.1425 91.6538 18.643 92.6642 20.9026L93.0026 21.2625C92.3183 20.8397 91.403 20.5782 89.9205 20.4086C87.9627 20.1848 87.1688 18.4281 87.1688 18.4281C87.1688 18.4281 84.2713 22.9539 88.8193 25.7109C90.398 26.6679 91.7818 26.4559 92.8121 25.9529L92.8168 25.9628C91.9253 26.6671 91.1729 27.7969 91.4637 29.5618C92.3019 34.6483 97.7962 33.9043 97.7962 33.9043C97.7962 33.9043 96.426 32.5096 96.9892 30.7025Z" fill="#0ECD7D"/>
<path d="M98.8917 36.3671C99.7358 34.4032 100.053 32.2331 99.8239 30.0386C101.376 30.43 103.152 30.244 104.853 29.4427C105.123 29.3155 105.263 29.0247 105.191 28.741C105.119 28.4572 104.854 28.2559 104.552 28.255C104.027 28.2535 103.263 27.1558 102.649 26.2738C101.991 25.3282 101.311 24.3506 100.468 23.7954C99.9238 23.4366 99.2493 23.22 98.481 23.1508L99.1511 22.73C99.4495 22.5426 99.5298 22.1556 99.3307 21.8655C99.1315 21.5754 98.7281 21.4922 98.4297 21.6795L97.76 22.1001C97.9713 21.4832 98.0744 20.7969 97.9309 20.1002C97.733 19.14 97.0652 18.1545 96.4194 17.2014C95.8169 16.3123 95.067 15.2059 95.2744 14.7443C95.3937 14.4788 95.3058 14.1662 95.062 13.9905C94.8182 13.8147 94.4834 13.8222 94.2542 14.0085C92.8093 15.1828 91.9249 16.6676 91.6839 18.1848C89.6698 17.112 87.4624 16.528 85.2431 16.4878C82.5958 16.4399 79.9864 17.1744 77.697 18.6121C74.4648 20.6418 72.2664 23.774 71.5066 27.4316C70.7469 31.0893 71.5169 34.8343 73.6748 37.9768C75.8328 41.1192 79.1204 43.2831 82.9321 44.07C86.7439 44.857 90.6232 44.1724 93.8554 42.1427C96.144 40.7055 97.8856 38.7084 98.8917 36.3671ZM98.3877 33.6581C98.3577 33.593 98.3174 33.5317 98.2649 33.4782C98.2537 33.4669 97.1618 32.3334 97.6116 30.8904C97.8061 30.2667 97.9377 29.726 98.0139 29.2442C98.1546 29.3377 98.2993 29.4246 98.4478 29.5051C98.6744 30.9382 98.6484 32.3353 98.3877 33.6581ZM94.1613 15.8911C94.4196 16.5232 94.8704 17.1885 95.3346 17.8736C95.9118 18.7253 96.5086 19.606 96.6568 20.3257C96.9531 21.7635 95.6197 23.3183 95.3526 23.6121L94.5409 24.1218C94.2425 24.3092 94.1621 24.6963 94.3613 24.9863C94.5605 25.2764 94.9639 25.3597 95.2622 25.1723L96.074 24.6625C96.4636 24.5446 98.4846 23.9933 99.7459 24.8241C100.378 25.2402 100.985 26.1139 101.573 26.9589C102.046 27.6385 102.506 28.2985 103.01 28.7763C101.117 29.2694 99.2698 28.8799 98.0726 27.6706C98.064 27.6619 98.0547 27.6542 98.0458 27.6461C97.9124 26.7649 97.5067 26.0512 96.9135 25.1873C96.7143 24.8972 96.3109 24.814 96.0126 25.0013C95.7142 25.1887 95.6338 25.5758 95.833 25.8658C96.7787 27.243 97.1633 27.9596 96.3669 30.5145C96.0159 31.6405 96.2858 32.6233 96.6281 33.3098C95.1521 33.2257 92.6227 32.613 92.1053 29.4731C91.8989 28.2208 92.2785 27.2031 93.2336 26.4486C93.4586 26.2708 93.5297 25.9679 93.4069 25.7097L93.4022 25.6999C93.3276 25.5435 93.1903 25.422 93.022 25.3643C92.8536 25.3066 92.6691 25.3174 92.5114 25.3944C91.4074 25.9333 90.2796 25.8623 89.1594 25.1832C86.3515 23.481 86.7695 21.0177 87.2751 19.6895C87.7978 20.2625 88.6339 20.8901 89.8536 21.0295C92.6218 21.3461 93.1566 21.9683 94.1023 23.3455C94.3015 23.6355 94.7048 23.7188 95.0032 23.5315C95.3016 23.3441 95.382 22.957 95.1828 22.667C94.5895 21.8031 94.0659 21.1634 93.2733 20.6962C93.2691 20.6851 93.2654 20.674 93.2605 20.6629C92.5756 19.1317 92.9357 17.3562 94.1613 15.8911ZM91.727 20.0889C91.2343 19.9642 90.6632 19.865 89.9875 19.7877C88.4441 19.6112 87.7896 18.2411 87.7639 18.186C87.7334 18.1186 87.6906 18.0588 87.6401 18.0067C89.013 18.3037 90.364 18.8362 91.6491 19.6046C91.6672 19.7668 91.6933 19.9283 91.727 20.0889ZM74.7553 37.2983C70.6982 31.3902 72.3414 23.4789 78.4184 19.6627C81.0276 18.0242 83.9821 17.4263 86.8761 17.8661C86.77 17.9161 86.6785 17.9939 86.6144 18.0943C86.5817 18.1454 85.8111 19.3642 85.6423 20.963C85.4813 22.4876 85.8428 24.6403 88.4791 26.2385C89.3512 26.7672 90.2522 27.0229 91.1489 27.0036C90.774 27.7829 90.6613 28.6751 90.8221 29.6505C90.9913 30.6776 91.3347 31.489 91.7751 32.1303C92.599 33.33 93.7619 33.9336 94.757 34.2364C96.3583 34.7236 97.8341 34.5318 97.8961 34.5234C98.0178 34.5069 98.1288 34.4576 98.2189 34.3845C97.4909 37.0989 95.743 39.4539 93.134 41.0923C87.0572 44.9084 78.8124 43.2065 74.7553 37.2983Z" fill="#2F2F2F"/>
<path d="M76.1317 29.5271C76.3436 27.3972 77.3291 25.4148 78.9068 23.9453C79.1626 23.707 79.1659 23.3112 78.9146 23.0613C78.6631 22.8114 78.2519 22.802 77.996 23.0403C76.2008 24.7126 75.0794 26.9673 74.8385 29.3892C74.8237 29.538 74.8645 29.6804 74.9447 29.7971C75.0493 29.9495 75.2211 30.058 75.4233 30.0795C75.7805 30.1176 76.0976 29.8702 76.1317 29.5271Z" fill="#2F2F2F"/>
<path d="M79.3867 22.6987C79.5859 22.9888 79.9893 23.0721 80.2877 22.8847L80.2937 22.8809C80.592 22.6936 80.6724 22.3065 80.4732 22.0164C80.274 21.7264 79.8707 21.6431 79.5723 21.8305L79.5663 21.8342C79.2679 22.0216 79.1876 22.4087 79.3867 22.6987Z" fill="#2F2F2F"/>
</g>
<g clip-path="url(#clip3_59_3114)">
<path d="M41.4278 24.1937C37.9465 27.71 36.6847 32.6943 38.796 37.4833C41.7633 44.2138 49.9707 47.3319 57.1263 44.447C64.2818 41.5621 67.6775 33.766 64.7102 27.0355C62.5995 22.2479 57.9893 19.6323 52.928 19.5591L41.4278 24.1937Z" fill="#D75F5F"/>
<path d="M54.1176 21.7727C52.7875 21.1237 51.875 20.8535 51.0604 20.8402L51.551 20.7216C53.7063 19.3831 54.3412 16.7796 53.6146 14.3225C53.3296 15.7789 49.5623 16.2916 48.1078 17.6829C46.6549 19.0726 47.1012 21.704 47.1022 21.7102C47.0984 21.7052 45.4399 19.5625 43.3851 19.5869C41.3279 19.6114 38.3139 21.8327 37.0246 21.011C38.3568 23.2239 40.7492 24.607 43.256 24.0658L43.6874 23.8127C43.1286 24.3797 42.6939 25.1932 42.2511 26.5568C41.6665 28.3576 39.7161 28.7861 39.7161 28.7861C39.7161 28.7861 43.8459 32.3306 47.5047 28.5525C48.7749 27.241 48.8073 25.9012 48.4766 24.8412L48.4876 24.8385C49.0505 25.8045 50.0762 26.7167 51.9439 26.7628C57.3268 26.8954 57.5565 21.5934 57.5565 21.5934C57.5565 21.5934 55.874 22.6296 54.1176 21.7727Z" fill="#0ECD7D"/>
<path d="M60.2878 21.0091C58.4209 19.8597 56.2465 19.1684 53.9482 18.9865C54.6317 17.598 54.762 15.8938 54.2459 14.1491C54.164 13.8722 53.8903 13.6877 53.5855 13.7038C53.2806 13.72 53.0256 13.9326 52.97 14.2168C52.8734 14.7105 51.6061 15.2301 50.5879 15.6476C49.4964 16.0951 48.3678 16.5579 47.6442 17.25C47.1766 17.6972 46.8318 18.2923 46.6214 19.0023L46.31 18.2959C46.1713 17.9814 45.7878 17.8357 45.4534 17.9705C45.1191 18.1054 44.9604 18.4696 45.0991 18.7842L45.4103 19.4902C44.8141 19.1798 44.127 18.9586 43.3845 18.9673C42.3612 18.9796 41.2268 19.4292 40.1296 19.8641C39.1061 20.2697 37.8325 20.7746 37.3954 20.496C37.1439 20.3357 36.8065 20.3618 36.5816 20.5593C36.3568 20.7567 36.3039 21.0729 36.4539 21.3223C37.4 22.8937 38.7668 23.9944 40.2836 24.4958C38.8156 26.1957 37.8153 28.166 37.3721 30.246C36.8435 32.727 37.1264 35.314 38.1904 37.7275C39.6927 41.1349 42.5158 43.7695 46.1399 45.1464C49.7639 46.5232 53.7548 46.477 57.3773 45.0165C60.9998 43.556 63.8205 40.8559 65.32 37.4135C66.8194 33.9711 66.8178 30.1988 65.3156 26.7914C64.252 24.3787 62.5134 22.3792 60.2878 21.0091ZM57.4105 20.9926C57.3382 21.0091 57.2678 21.0358 57.2033 21.0755C57.1896 21.084 55.8262 21.9056 54.4236 21.2213C53.8174 20.9256 53.2852 20.7039 52.8035 20.545C52.925 20.4295 53.0407 20.3092 53.1503 20.1841C54.6652 20.2305 56.0974 20.5079 57.4105 20.9926ZM38.3733 21.7504C39.0701 21.622 39.8359 21.3185 40.6245 21.0059C41.6049 20.6174 42.6188 20.2155 43.3857 20.2064C44.9181 20.1881 46.2757 21.7237 46.5294 22.028L46.9067 22.8838C47.0453 23.1983 47.4288 23.344 47.7632 23.2092C48.0976 23.0744 48.2563 22.7101 48.1176 22.3956L47.7403 21.5398C47.6895 21.152 47.4886 19.1515 48.5713 18.1157C49.1136 17.597 50.1223 17.1835 51.0977 16.7835C51.8822 16.4618 52.6441 16.1494 53.2268 15.7619C53.3912 17.6315 52.6562 19.2979 51.1958 20.2048C51.1853 20.2114 51.1757 20.2186 51.1657 20.2256C50.2353 20.1915 49.4278 20.4438 48.432 20.8453C48.0976 20.9801 47.939 21.3444 48.0776 21.6589C48.2163 21.9735 48.5998 22.1191 48.9342 21.9843C50.5218 21.3443 51.3283 21.1123 53.8117 22.3239C54.9061 22.8579 55.9657 22.782 56.7337 22.5844C56.38 23.9573 55.2919 26.2252 51.969 26.1434C50.6437 26.1107 49.6659 25.5694 49.0628 24.5346C48.9207 24.2907 48.6221 24.1691 48.3344 24.2378L48.3234 24.2404C48.149 24.2822 47.9992 24.3894 47.9094 24.5373C47.8196 24.6852 47.7973 24.8606 47.8479 25.0228C48.2023 26.1588 47.925 27.2065 47.0238 28.1371C44.7648 30.4697 42.3071 29.6306 41.0327 28.9145C41.7167 28.5267 42.5135 27.854 42.8777 26.7322C43.7045 24.186 44.4412 23.7958 46.0288 23.1557C46.3632 23.0209 46.5219 22.6566 46.3832 22.3421C46.2445 22.0275 45.861 21.8819 45.5266 22.0167C44.5308 22.4182 43.7782 22.7948 43.1542 23.4556C43.142 23.4576 43.1298 23.4591 43.1176 23.4617C41.4188 23.8285 39.6581 23.1684 38.3733 21.7504ZM42.2496 24.8C42.0322 25.2407 41.8267 25.7599 41.6249 26.3814C41.1639 27.801 39.6363 28.1685 39.575 28.1827C39.5001 28.1991 39.431 28.2285 39.3682 28.2666C39.9222 27.0292 40.7145 25.855 41.7374 24.7855C41.9075 24.7979 42.0783 24.8026 42.2496 24.8ZM56.8752 43.8775C50.0645 46.6234 42.2259 43.6455 39.4015 37.2393C38.1889 34.4887 38.1089 31.6018 39.0853 28.9597C39.1175 29.0685 39.181 29.1686 39.2725 29.2471C39.3192 29.2872 40.4331 30.2325 42.0468 30.6808C43.5856 31.1082 45.865 31.158 47.9859 28.968C48.6876 28.2435 49.1137 27.4425 49.2561 26.5956C49.9897 27.0893 50.8869 27.3569 51.9191 27.3823C53.006 27.4091 53.9027 27.233 54.642 26.935C56.0249 26.3774 56.8563 25.3929 57.3478 24.5119C58.1388 23.0942 58.2088 21.6714 58.2114 21.6116C58.2165 21.4941 58.1859 21.3808 58.127 21.2828C60.7867 22.459 62.8922 24.5293 64.1048 27.2796C66.9291 33.6858 63.6859 41.1317 56.8752 43.8775Z" fill="#2F2F2F"/>
<path d="M49.1323 41.1759C46.9802 40.591 45.1199 39.3052 43.8943 37.5554C43.6955 37.2716 43.2891 37.1968 42.9866 37.3879C42.684 37.5792 42.5999 37.9643 42.7987 38.248C44.1934 40.2392 46.3092 41.7021 48.7563 42.3672C48.9067 42.408 49.0605 42.3955 49.195 42.3412C49.3707 42.2704 49.5134 42.1285 49.5722 41.9422C49.676 41.6132 49.479 41.2701 49.1323 41.1759Z" fill="#2F2F2F"/>
<path d="M42.6992 36.8783C43.0336 36.7435 43.1923 36.3792 43.0536 36.0647L43.0508 36.0583C42.9121 35.7438 42.5286 35.5981 42.1942 35.7329C41.8599 35.8678 41.7012 36.232 41.8399 36.5466L41.8426 36.5529C41.9813 36.8674 42.3648 37.0131 42.6992 36.8783Z" fill="#2F2F2F"/>
</g>
<defs>
<clipPath id="clip0_59_3114">
<rect width="32.2123" height="30.2993" fill="white" transform="translate(15.5781)"/>
</clipPath>
<clipPath id="clip1_59_3114">
<rect width="32.1242" height="30.3897" fill="white" transform="matrix(0.970171 0.242421 -0.263578 0.964638 55.8005 3.28247)"/>
</clipPath>
<clipPath id="clip2_59_3114">
<rect width="31.2352" height="31.2734" fill="white" transform="matrix(0.566078 0.824352 -0.846865 0.531809 91.3184 8.47095)"/>
</clipPath>
<clipPath id="clip3_59_3114">
<rect width="32.0038" height="30.5123" fill="white" transform="matrix(0.927459 -0.373924 0.403406 0.915021 30.2273 23.0806)"/>
</clipPath>
</defs>
</svg>
